<svg width="300" height="160" viewBox="0 0 300 160" fill="none" xmlns="http://www.w3.org/2000/svg">
<path d="M85.1616 67.1016L81.3989 73.6706L66.4189 99.7723C65.3807 101.568 63.6385 102.998 61.643 103.86C59.6474 104.722 57.4069 105.018 55.3947 104.537L27.8664 97.9643L18.7775 95.803C14.7491 94.8408 13.1543 91.15 15.2184 87.5548L33.961 54.8841C34.9992 53.0886 36.7414 51.6588 38.737 50.7943C40.7325 49.9298 42.971 49.6409 44.9873 50.1189L81.6066 58.8534C85.6308 59.8156 87.2235 63.5064 85.1616 67.1016Z" fill="#77CBE8"/>
<path d="M81.3989 58.3962L77.6301 64.9652L62.6542 91.0669C61.616 92.8645 59.8759 94.2922 57.8783 95.1546C55.8807 96.017 53.6401 96.3121 51.63 95.8321L24.1059 89.2485L15.0149 87.0747C10.9865 86.1125 9.39377 82.4217 11.4557 78.8265L30.2004 46.1558C31.2387 44.3603 32.9809 42.9305 34.9764 42.066C36.9719 41.2015 39.2104 40.9126 41.2246 41.3906L77.8419 50.1334C81.8703 51.0998 83.463 54.7906 81.3989 58.3962Z" fill="white"/>
<path d="M77.7366 49.9422L73.9698 56.5092L59.0023 82.5963C57.964 84.3918 56.2239 85.8195 54.2263 86.682C52.2287 87.5444 49.9923 87.8395 47.9822 87.3594L20.4726 80.7904L11.3879 78.6208C7.36151 77.6586 5.76882 73.9699 7.8308 70.3767L26.563 37.7227C27.6013 35.9292 29.3435 34.4994 31.339 33.637C33.3345 32.7746 35.5709 32.4836 37.5851 32.9595L74.1816 41.6982C78.2059 42.6604 79.7986 46.3429 77.7366 49.9422Z" fill="#009FDC"/>
<path d="M118.276 36.5756C118.027 36.5839 117.78 36.5422 117.548 36.4528C117.316 36.3634 117.105 36.2283 116.926 36.0555C116.747 35.8826 116.605 35.6755 116.508 35.4466C116.411 35.2177 116.361 34.9716 116.361 34.7229C116.361 34.4743 116.411 34.2282 116.508 33.9992C116.605 33.7703 116.747 33.5632 116.926 33.3904C117.105 33.2175 117.316 33.0824 117.548 32.993C117.78 32.9037 118.027 32.8619 118.276 32.8702H138.918C139.167 32.8619 139.414 32.9037 139.646 32.993C139.878 33.0824 140.089 33.2175 140.268 33.3904C140.446 33.5632 140.588 33.7703 140.685 33.9992C140.782 34.2282 140.832 34.4743 140.832 34.7229C140.832 34.9716 140.782 35.2177 140.685 35.4466C140.588 35.6755 140.446 35.8826 140.268 36.0555C140.089 36.2283 139.878 36.3634 139.646 36.4528C139.414 36.5422 139.167 36.5839 138.918 36.5756H118.276ZM128.615 63.0222C128.35 63.0264 128.087 62.9774 127.842 62.878C127.597 62.7786 127.374 62.6309 127.187 62.4436C127 62.2564 126.852 62.0334 126.753 61.7879C126.653 61.5425 126.604 61.2795 126.609 61.0147V32.864H130.612V61.0085C130.617 61.2734 130.568 61.5364 130.469 61.782C130.369 62.0276 130.222 62.2507 130.035 62.438C129.847 62.6253 129.625 62.7731 129.379 62.8723C129.134 62.9716 128.871 63.0205 128.606 63.016L128.615 63.0222Z" fill="#77CBE8"/>
<path d="M151.794 63.176C150.008 63.2023 148.254 62.7131 146.739 61.767C145.246 60.8271 144.028 59.5086 143.209 57.9453C142.33 56.2605 141.886 54.3823 141.918 52.4818C141.887 50.5605 142.374 48.6664 143.325 46.9976C144.238 45.4029 145.555 44.078 147.144 43.1571C148.354 42.4415 149.694 41.973 151.086 41.7788C152.479 41.5846 153.895 41.6685 155.255 42.0256C156.614 42.3827 157.89 43.006 159.007 43.8594C160.125 44.7128 161.062 45.7794 161.765 46.9976C162.716 48.6668 163.202 50.5606 163.173 52.4818H161.678C161.709 54.3825 161.264 56.2607 160.384 57.9453C159.565 59.5086 158.347 60.8271 156.854 61.767C155.338 62.7144 153.581 63.2036 151.794 63.176V63.176ZM152.564 59.7013C153.8 59.7216 155.016 59.3939 156.075 58.7558C157.101 58.1259 157.94 57.2325 158.505 56.1685C159.107 55.0342 159.413 53.766 159.394 52.4818C159.416 51.1847 159.11 49.903 158.505 48.7557C157.941 47.6912 157.102 46.7977 156.075 46.1684C155.012 45.549 153.804 45.2227 152.574 45.2227C151.344 45.2227 150.136 45.549 149.073 46.1684C148.035 46.7953 147.182 47.6886 146.604 48.7557C145.987 49.8993 145.675 51.1824 145.697 52.4818C145.678 53.7683 145.99 55.0381 146.604 56.1685C147.183 57.2351 148.035 58.1282 149.073 58.7558C150.129 59.3892 151.341 59.7152 152.572 59.6972L152.564 59.7013ZM161.206 63.0596C160.946 63.0674 160.687 63.0218 160.444 62.9257C160.202 62.8295 159.982 62.6849 159.798 62.5006C159.614 62.3163 159.469 62.0963 159.372 61.854C159.276 61.6117 159.23 61.3523 159.238 61.0916V55.1793L159.971 51.0874L163.173 52.4777V61.0979C163.181 61.3584 163.135 61.6178 163.039 61.8601C162.943 62.1023 162.798 62.3224 162.614 62.5067C162.43 62.6911 162.21 62.8357 161.968 62.9319C161.726 63.028 161.467 63.0736 161.206 63.0659V63.0596Z" fill="#009FDC"/>
<path d="M179.653 63.176C177.759 63.2049 175.893 62.7178 174.254 61.767C172.678 60.8415 171.376 59.5141 170.481 57.9203C169.541 56.2467 169.049 54.3581 169.054 52.4381V34.832C169.043 34.5683 169.087 34.3051 169.184 34.0593C169.28 33.8135 169.426 33.5904 169.613 33.4043C169.889 33.1226 170.243 32.9305 170.629 32.8533C171.016 32.7761 171.417 32.8172 171.779 32.9713C172.142 33.1255 172.45 33.3855 172.663 33.7174C172.876 34.0493 172.984 34.4377 172.973 34.832V45.256C173.867 44.1805 174.978 43.306 176.233 42.6895C177.691 41.9961 179.298 41.6754 180.91 41.7563C182.523 41.8372 184.09 42.3171 185.471 43.1529C186.964 44.0935 188.182 45.4118 189.001 46.9747C189.882 48.6591 190.326 50.5374 190.295 52.4381C190.323 54.3586 189.837 56.2516 188.887 57.9203C187.963 59.5473 186.618 60.8945 184.993 61.8196C183.367 62.7447 181.522 63.2133 179.653 63.176ZM179.653 59.7013C180.889 59.7215 182.105 59.3939 183.164 58.7557C184.196 58.1191 185.041 57.2199 185.613 56.1497C186.225 55.0112 186.537 53.7352 186.52 52.4423C186.544 51.1493 186.231 49.8724 185.613 48.7369C185.034 47.6821 184.19 46.7967 183.164 46.1683C182.101 45.549 180.893 45.2227 179.663 45.2227C178.433 45.2227 177.225 45.549 176.162 46.1683C175.13 46.7889 174.284 47.6761 173.712 48.7369C173.106 49.8764 172.801 51.1518 172.825 52.4423C172.807 53.7328 173.112 55.0073 173.712 56.1497C174.277 57.2338 175.132 58.1397 176.18 58.7667C177.229 59.3938 178.431 59.7173 179.653 59.7013V59.7013Z" fill="#009FDC"/>
<path d="M201.179 63.016C200.104 63.0336 199.051 62.7099 198.171 62.0912C197.275 61.4467 196.569 60.5732 196.127 59.5621C195.621 58.3997 195.373 57.1411 195.4 55.8733V34.7946C195.392 34.5359 195.436 34.2781 195.529 34.0366C195.622 33.795 195.762 33.5747 195.942 33.3887C196.122 33.2027 196.338 33.0548 196.576 32.9537C196.814 32.8527 197.07 32.8007 197.329 32.8007C197.587 32.8007 197.843 32.8527 198.081 32.9537C198.32 33.0548 198.535 33.2027 198.715 33.3887C198.895 33.5747 199.035 33.795 199.128 34.0366C199.221 34.2781 199.265 34.5359 199.257 34.7946V55.8733C199.224 56.6932 199.412 57.5067 199.799 58.23C200.158 58.8479 200.621 59.1568 201.186 59.1568H202.151C202.386 59.1506 202.619 59.1957 202.834 59.289C203.049 59.3824 203.241 59.5217 203.397 59.6972C203.727 60.0832 203.899 60.5798 203.879 61.0874C203.88 61.3614 203.814 61.6314 203.686 61.8736C203.559 62.1158 203.373 62.3226 203.146 62.4756C202.591 62.8564 201.927 63.046 201.254 63.016H201.179Z" fill="#009FDC"/>
<path d="M217.651 63.1759C215.517 63.1759 213.62 62.7187 211.962 61.8043C210.339 60.9273 208.99 59.6184 208.064 58.0221C207.126 56.4136 206.656 54.5668 206.656 52.4817C206.656 50.3703 207.1 48.5104 207.987 46.9019C208.844 45.3251 210.118 44.0156 211.671 43.1176C213.316 42.1857 215.18 41.7128 217.07 41.7481C219.079 41.7481 220.802 42.1921 222.24 43.0802C223.671 43.9579 224.816 45.232 225.538 46.7481C226.298 48.3039 226.677 50.0988 226.676 52.1326C226.683 52.3594 226.641 52.585 226.555 52.7948C226.469 53.0046 226.34 53.1939 226.175 53.3504C226.006 53.5112 225.806 53.6366 225.587 53.7194C225.369 53.8021 225.136 53.8406 224.903 53.8325H209.356V50.7402H224.786L223.204 51.8209C223.2 50.6267 222.937 49.4476 222.434 48.3649C221.976 47.3849 221.258 46.5501 220.357 45.9522C219.456 45.3606 218.362 45.0648 217.076 45.0648C215.61 45.0648 214.357 45.3862 213.316 46.0291C212.285 46.661 211.46 47.5805 210.944 48.6746C210.388 49.8637 210.11 51.1645 210.132 52.4776C210.109 53.8022 210.442 55.1088 211.098 56.2598C211.732 57.36 212.652 58.2677 213.76 58.8866C214.952 59.5444 216.295 59.8769 217.656 59.8509C218.492 59.8442 219.321 59.6938 220.106 59.4062C220.828 59.1687 221.511 58.824 222.13 58.3837C222.49 58.111 222.925 57.9564 223.376 57.9411C223.806 57.9221 224.227 58.0669 224.554 58.3463C224.75 58.5002 224.913 58.6926 225.032 58.9117C225.151 59.1307 225.224 59.3718 225.247 59.6202C225.255 59.8565 225.202 60.0909 225.093 60.3006C224.984 60.5103 224.822 60.6882 224.624 60.8172C223.644 61.5676 222.541 62.1421 221.364 62.5151C220.171 62.9358 218.917 63.159 217.651 63.1759Z" fill="#009FDC"/>
<path d="M230.807 45.9896C230.326 46.0106 229.856 45.8453 229.494 45.5283C229.332 45.3825 229.204 45.2034 229.117 45.0033C229.031 44.8031 228.989 44.5866 228.994 44.3687C228.984 44.139 229.023 43.9098 229.109 43.6968C229.196 43.4838 229.327 43.2919 229.494 43.1343C229.855 42.8153 230.326 42.6492 230.807 42.6708H239.719C240.199 42.649 240.669 42.8153 241.029 43.1343C241.197 43.2918 241.328 43.4836 241.415 43.6966C241.502 43.9096 241.542 44.1389 241.532 44.3687C241.536 44.5868 241.494 44.8033 241.407 45.0034C241.32 45.2036 241.191 45.3826 241.029 45.5283C240.668 45.8448 240.199 46.01 239.719 45.9896H230.807ZM239.372 63.016C238.141 63.0344 236.932 62.6928 235.892 62.033C234.858 61.3705 234.02 60.4445 233.462 59.3501C232.859 58.1672 232.555 56.8543 232.576 55.5263V37.1097C232.576 36.8562 232.626 36.6051 232.723 36.3709C232.82 36.1366 232.962 35.9238 233.141 35.7445C233.32 35.5653 233.533 35.4231 233.767 35.326C234.001 35.229 234.251 35.1791 234.505 35.1791C234.758 35.1791 235.009 35.229 235.243 35.326C235.477 35.4231 235.69 35.5653 235.869 35.7445C236.048 35.9238 236.19 36.1366 236.287 36.3709C236.384 36.6051 236.434 36.8562 236.434 37.1097V55.5263C236.402 56.4618 236.702 57.3784 237.281 58.1136C237.523 58.4364 237.836 58.6983 238.197 58.8787C238.557 59.059 238.955 59.1529 239.358 59.1527H240.668C240.892 59.1507 241.113 59.1981 241.317 59.2915C241.52 59.3848 241.701 59.5219 241.845 59.693C242.176 60.0785 242.349 60.5755 242.327 61.0833C242.334 61.3481 242.28 61.6109 242.169 61.8515C242.059 62.0921 241.895 62.3042 241.69 62.4715C241.228 62.8456 240.645 63.0378 240.051 63.0118L239.372 63.016Z" fill="#009FDC"/>
<path d="M256.73 63.176C254.654 63.176 252.815 62.7188 251.215 61.8044C249.639 60.9109 248.338 59.6029 247.452 58.0222C246.54 56.4137 246.084 54.5669 246.084 52.4818C246.084 50.3704 246.54 48.5104 247.452 46.9019C248.339 45.321 249.64 44.0124 251.215 43.1176C252.81 42.2046 254.648 41.7481 256.73 41.7481C258.646 41.7123 260.536 42.1848 262.21 43.1176C263.784 44.0131 265.085 45.3216 265.971 46.9019C266.883 48.5104 267.339 50.3704 267.339 52.4818C267.339 54.5599 266.889 56.4067 265.989 58.0222C265.117 59.6047 263.823 60.914 262.252 61.8044C260.654 62.7188 258.814 63.176 256.73 63.176ZM256.73 59.7013C257.977 59.725 259.205 59.4043 260.281 58.7744C261.303 58.1629 262.137 57.2814 262.692 56.2266C263.287 55.0712 263.585 53.7856 263.56 52.4859C263.584 51.1784 263.286 49.885 262.692 48.7203C262.142 47.6577 261.307 46.7692 260.281 46.1538C259.196 45.5462 257.974 45.2272 256.731 45.2272C255.488 45.2272 254.266 45.5462 253.182 46.1538C252.153 46.7712 251.312 47.6588 250.752 48.7203C250.145 49.881 249.84 51.1761 249.865 52.4859C249.839 53.7879 250.144 55.0752 250.752 56.2266C251.317 57.2802 252.156 58.1607 253.182 58.7744C254.257 59.4031 255.485 59.7224 256.73 59.6971V59.7013Z" fill="#009FDC"/>
<path d="M275.17 72.0517C274.91 72.0589 274.651 72.0128 274.409 71.9164C274.167 71.8199 273.947 71.675 273.763 71.4907C273.578 71.3063 273.434 71.0862 273.337 70.844C273.241 70.6017 273.195 70.3423 273.202 70.0817V52.4776C273.198 50.5568 273.69 48.6676 274.631 46.9933C275.527 45.4002 276.832 44.0747 278.41 43.1529C279.621 42.436 280.963 41.9664 282.357 41.7715C283.751 41.5766 285.169 41.6601 286.531 42.0172C287.892 42.3743 289.17 42.9979 290.289 43.8521C291.408 44.7062 292.347 45.7738 293.051 46.9933C294.002 48.6625 294.488 50.5564 294.459 52.4776C294.49 54.3783 294.046 56.2565 293.165 57.9411C292.346 59.504 291.128 60.8224 289.635 61.7628C288.254 62.599 286.686 63.0791 285.074 63.16C283.461 63.2409 281.853 62.92 280.395 62.2262C279.14 61.6084 278.029 60.7332 277.135 59.6576V70.0817C277.142 70.3406 277.098 70.5984 277.005 70.84C276.911 71.0816 276.77 71.3021 276.591 71.4886C276.406 71.6761 276.184 71.8231 275.94 71.92C275.695 72.017 275.433 72.0619 275.17 72.0517V72.0517ZM283.811 59.6971C285.047 59.7173 286.263 59.3897 287.322 58.7515C288.351 58.1184 289.196 57.2263 289.772 56.1642C290.385 55.0332 290.696 53.7638 290.678 52.4776C290.699 51.1785 290.388 49.8956 289.772 48.7514C289.196 47.6889 288.351 46.7966 287.322 46.1641C286.259 45.5448 285.051 45.2185 283.821 45.2185C282.591 45.2185 281.383 45.5448 280.32 46.1641C279.284 46.7884 278.437 47.6827 277.87 48.7514C277.266 49.8989 276.961 51.1806 276.983 52.4776C276.963 53.7616 277.269 55.0298 277.87 56.1642C278.44 57.2425 279.296 58.1427 280.344 58.7659C281.392 59.3891 282.592 59.7113 283.811 59.6971V59.6971Z" fill="#009FDC"/>
<path d="M131.651 103.077C129.676 103.092 127.718 102.704 125.898 101.937C124.077 101.171 122.431 100.041 121.061 98.6168C119.698 97.1961 118.623 95.5241 117.896 93.6936C117.126 91.7533 116.74 89.6819 116.758 87.5942C116.741 85.5249 117.128 83.472 117.896 81.551C118.627 79.7313 119.702 78.0697 121.061 76.6569C122.404 75.2591 124.009 74.1386 125.783 73.3589C127.633 72.5499 129.633 72.1413 131.651 72.1598C133.632 72.1598 135.336 72.4168 136.764 72.9308C138.332 73.5294 139.787 74.391 141.066 75.4786C141.251 75.6127 141.414 75.7755 141.548 75.9607C141.656 76.1121 141.734 76.2828 141.778 76.4636C141.82 76.6603 141.84 76.8611 141.836 77.0622C141.842 77.2904 141.799 77.5173 141.709 77.7272C141.619 77.937 141.485 78.1249 141.315 78.2779C140.954 78.6169 140.481 78.8104 139.986 78.8211C139.491 78.8319 139.01 78.6591 138.635 78.3361C137.754 77.5575 136.759 76.9197 135.684 76.4449C134.657 76.0071 133.312 75.7882 131.651 75.7882C130.173 75.78 128.712 76.0964 127.369 76.7151C126.039 77.3275 124.84 78.1928 123.839 79.2629C122.817 80.3549 122.012 81.6323 121.468 83.0265C120.336 85.9849 120.336 89.2577 121.468 92.2161C122.012 93.6103 122.817 94.8877 123.839 95.9796C124.837 97.0486 126.037 97.9083 127.369 98.5087C129.904 99.633 132.779 99.7166 135.374 98.7415C136.579 98.273 137.715 97.6439 138.751 96.8711C139.137 96.5599 139.624 96.4016 140.119 96.4264C140.553 96.457 140.959 96.6499 141.257 96.9667C141.582 97.3318 141.748 97.8109 141.72 98.2988C141.72 98.5574 141.668 98.8132 141.567 99.0511C141.457 99.3042 141.3 99.5336 141.103 99.7265C139.764 100.809 138.254 101.66 136.635 102.245C135.034 102.807 133.348 103.088 131.651 103.077Z" fill="#77CBE8"/>
<path d="M150.169 102.698C149.553 102.698 149.078 102.538 148.743 102.216C148.408 101.895 148.24 101.41 148.24 100.761V83.5086C148.224 83.249 148.26 82.9888 148.346 82.7435C148.432 82.4982 148.567 82.2728 148.743 82.0809C149.076 81.7456 149.552 81.5787 150.169 81.5801C150.813 81.5801 151.298 81.7408 151.623 82.0622C151.948 82.3836 152.109 82.8685 152.105 83.5169V100.776C152.105 101.399 151.945 101.871 151.623 102.204C151.301 102.536 150.813 102.698 150.169 102.698ZM150.132 89.4937C150.108 88.028 150.502 86.5859 151.27 85.3374C152.026 84.12 153.082 83.118 154.337 82.428C155.633 81.7054 157.095 81.333 158.579 81.3473C160.123 81.3473 161.274 81.5981 162.032 82.0996C162.791 82.6011 163.08 83.1997 162.9 83.8951C162.847 84.2132 162.691 84.505 162.456 84.7264C162.245 84.9166 161.984 85.0434 161.704 85.0922C161.396 85.1432 161.081 85.1304 160.778 85.0548C159.132 84.7209 157.654 84.6952 156.343 84.9779C155.032 85.2605 153.994 85.7877 153.228 86.5593C152.851 86.9467 152.556 87.4062 152.36 87.9104C152.165 88.4146 152.073 88.9531 152.09 89.4937H150.132Z" fill="#009FDC"/>
<path d="M176.249 102.852C174.114 102.852 172.218 102.396 170.559 101.483C168.937 100.604 167.588 99.2947 166.662 97.6983C165.723 96.0898 165.254 94.243 165.254 92.1579C165.254 90.0493 165.698 88.1893 166.585 86.5781C167.444 85.0019 168.721 83.6932 170.275 82.7958C171.919 81.8623 173.784 81.3886 175.674 81.4242C177.68 81.4242 179.403 81.8683 180.844 82.7563C182.275 83.6341 183.42 84.9082 184.142 86.4243C184.899 87.9829 185.278 89.7784 185.28 91.8109C185.286 92.0373 185.245 92.2625 185.159 92.4719C185.072 92.6814 184.943 92.8703 184.779 93.0266C184.61 93.1894 184.41 93.3166 184.19 93.4008C183.971 93.485 183.737 93.5246 183.502 93.517H167.955V90.4206H183.386L181.804 91.5012C181.799 90.3071 181.536 89.1281 181.033 88.0453C180.571 87.0229 179.813 86.1624 178.858 85.5743C177.903 84.9862 176.794 84.6975 175.674 84.7451C174.208 84.7451 172.954 85.0666 171.913 85.7094C170.882 86.342 170.058 87.2612 169.54 88.3549C168.985 89.5446 168.708 90.8451 168.73 92.1579C168.707 93.4832 169.04 94.7903 169.696 95.9422C170.328 97.041 171.246 97.9479 172.351 98.567C173.542 99.2259 174.886 99.5586 176.247 99.5312C177.083 99.5243 177.912 99.3746 178.697 99.0886C179.419 98.8503 180.101 98.5057 180.722 98.0661C181.081 97.7921 181.516 97.6367 181.968 97.6214C182.399 97.6014 182.821 97.7463 183.149 98.0266C183.345 98.1807 183.508 98.3732 183.627 98.5922C183.746 98.8112 183.82 99.0522 183.843 99.3005C183.851 99.5369 183.798 99.7712 183.688 99.9809C183.579 100.191 183.418 100.369 183.22 100.498C182.239 101.248 181.136 101.822 179.96 102.195C178.767 102.615 177.513 102.836 176.249 102.852V102.852Z" fill="#009FDC"/>
<path d="M199.087 102.852C197.302 102.878 195.547 102.389 194.032 101.443C192.54 100.503 191.322 99.1843 190.502 97.6215C189.622 95.9369 189.178 94.0585 189.211 92.158C189.183 90.2369 189.672 88.3436 190.625 86.6758C191.538 85.081 192.855 83.7556 194.443 82.8333C195.654 82.1174 196.994 81.6488 198.386 81.4546C199.779 81.2603 201.196 81.3443 202.556 81.7016C203.916 82.059 205.191 82.6826 206.309 83.5364C207.426 84.3901 208.363 85.4572 209.066 86.6758C210.017 88.3442 210.503 90.2374 210.474 92.158H208.969C209.001 94.0585 208.557 95.9369 207.677 97.6215C206.857 99.1843 205.639 100.503 204.147 101.443C202.631 102.39 200.874 102.879 199.087 102.852V102.852ZM199.859 99.3775C201.094 99.3987 202.311 99.071 203.368 98.4319C204.396 97.8038 205.236 96.9101 205.8 95.8446C206.401 94.71 206.706 93.4419 206.687 92.158C206.708 90.8611 206.403 89.5797 205.8 88.4318C205.236 87.3674 204.396 86.4745 203.368 85.8466C202.306 85.226 201.098 84.899 199.867 84.899C198.637 84.899 197.429 85.226 196.366 85.8466C195.328 86.4734 194.476 87.3658 193.897 88.4318C193.281 89.5756 192.969 90.8588 192.992 92.158C192.972 93.4443 193.284 94.7141 193.897 95.8446C194.475 96.9117 195.328 97.8049 196.366 98.4319C197.42 99.0663 198.63 99.3938 199.859 99.3775V99.3775ZM208.499 102.738C208.239 102.745 207.98 102.699 207.738 102.603C207.495 102.507 207.276 102.362 207.091 102.177C206.907 101.993 206.763 101.773 206.667 101.53C206.571 101.288 206.525 101.028 206.533 100.768V94.8617L207.266 90.7677L210.468 92.158V100.768C210.475 101.028 210.429 101.288 210.333 101.53C210.236 101.772 210.091 101.992 209.907 102.177C209.723 102.361 209.503 102.506 209.261 102.603C209.019 102.699 208.76 102.745 208.499 102.738V102.738Z" fill="#009FDC"/>
<path d="M215.289 85.672C214.808 85.6937 214.337 85.5275 213.977 85.2086C213.815 85.0632 213.686 84.8845 213.6 84.6847C213.513 84.4849 213.471 84.2687 213.476 84.0511C213.466 83.8211 213.505 83.5916 213.592 83.3782C213.678 83.1648 213.809 82.9726 213.977 82.8146C214.337 82.4956 214.808 82.3294 215.289 82.3511H224.199C224.68 82.3294 225.151 82.4956 225.512 82.8146C225.679 82.9725 225.811 83.1647 225.898 83.378C225.984 83.5914 226.024 83.8209 226.014 84.0511C226.018 84.2683 225.975 84.4838 225.888 84.6829C225.801 84.8819 225.672 85.0598 225.51 85.2044C225.149 85.5234 224.678 85.6895 224.197 85.6679L215.289 85.672ZM223.848 102.698C222.62 102.715 221.413 102.372 220.376 101.713C219.342 101.051 218.504 100.125 217.947 99.0304C217.343 97.8483 217.038 96.5361 217.058 95.2087V76.7921C217.058 76.5385 217.108 76.2875 217.205 76.0532C217.302 75.819 217.444 75.6062 217.623 75.4269C217.802 75.2476 218.015 75.1054 218.249 75.0084C218.483 74.9114 218.734 74.8615 218.987 74.8615C219.241 74.8615 219.491 74.9114 219.725 75.0084C219.96 75.1054 220.172 75.2476 220.351 75.4269C220.53 75.6062 220.673 75.819 220.769 76.0532C220.866 76.2875 220.916 76.5385 220.916 76.7921V95.2087C220.885 96.1445 221.186 97.0611 221.766 97.796C222.007 98.1187 222.321 98.3807 222.681 98.561C223.042 98.7414 223.439 98.8352 223.842 98.8351H225.155C225.378 98.8329 225.599 98.8803 225.803 98.9737C226.006 99.0671 226.186 99.2043 226.33 99.3754C226.661 99.761 226.834 100.258 226.814 100.766C226.821 101.031 226.767 101.294 226.656 101.535C226.546 101.776 226.381 101.988 226.176 102.156C225.714 102.53 225.131 102.722 224.538 102.696L223.848 102.698Z" fill="#009FDC"/>
<path d="M241.174 102.852C239.089 102.852 237.25 102.396 235.656 101.483C234.081 100.588 232.781 99.2796 231.896 97.6983C230.982 96.0898 230.525 94.243 230.525 92.1579C230.525 90.0493 230.982 88.1894 231.896 86.5781C232.781 84.9978 234.082 83.6899 235.656 82.7958C237.251 81.8815 239.09 81.4243 241.174 81.4243C243.089 81.3884 244.979 81.8617 246.652 82.7958C248.226 83.6905 249.526 84.9983 250.412 86.5781C251.326 88.1894 251.783 90.0493 251.783 92.1579C251.783 94.2361 251.332 96.0829 250.431 97.6983C249.558 99.2808 248.264 100.591 246.693 101.483C245.096 102.397 243.256 102.854 241.174 102.852ZM241.174 99.3775C242.419 99.4019 243.648 99.0811 244.723 98.4506C245.745 97.8391 246.579 96.9575 247.133 95.9028C247.73 94.7477 248.028 93.4619 248.001 92.1621C248.027 90.8551 247.729 89.562 247.133 88.3986C246.584 87.334 245.749 86.4438 244.723 85.8279C243.638 85.2203 242.416 84.9013 241.173 84.9013C239.93 84.9013 238.708 85.2203 237.623 85.8279C236.594 86.4461 235.754 87.3344 235.193 88.3965C234.586 89.5563 234.281 90.8508 234.307 92.16C234.28 93.462 234.585 94.7494 235.193 95.9007C235.759 96.9538 236.598 97.8343 237.623 98.4485C238.698 99.0803 239.927 99.4018 241.174 99.3775V99.3775Z" fill="#009FDC"/>
<path d="M259.574 102.698C258.956 102.698 258.481 102.538 258.147 102.216C257.813 101.895 257.646 101.41 257.645 100.761V83.5086C257.628 83.249 257.664 82.9888 257.75 82.7435C257.837 82.4982 257.972 82.2728 258.147 82.0809C258.481 81.7456 258.956 81.5787 259.574 81.5801C260.217 81.5801 260.702 81.7408 261.027 82.0622C261.353 82.3836 261.513 82.8685 261.509 83.5169V100.776C261.509 101.399 261.349 101.871 261.027 102.204C260.705 102.536 260.217 102.698 259.574 102.698ZM259.536 89.4937C259.512 88.028 259.907 86.5859 260.674 85.3374C261.43 84.12 262.486 83.118 263.741 82.428C265.038 81.7054 266.5 81.333 267.984 81.3473C269.527 81.3473 270.678 81.5981 271.437 82.0996C272.195 82.6011 272.485 83.1997 272.305 83.8951C272.251 84.2132 272.095 84.505 271.86 84.7264C271.649 84.9166 271.389 85.0434 271.109 85.0922C270.801 85.1432 270.485 85.1304 270.183 85.0548C268.535 84.7209 267.057 84.6952 265.747 84.9779C264.438 85.2605 263.399 85.7877 262.632 86.5593C262.255 86.9467 261.96 87.4062 261.764 87.9104C261.569 88.4146 261.477 88.9531 261.494 89.4937H259.536Z" fill="#009FDC"/>
<path d="M14 143C14 131.954 22.9543 123 34 123H267.5C277.717 123 286 131.283 286 141.5V141.5C286 151.717 277.717 160 267.5 160H14V143Z" fill="#E37827"/>
<path d="M36.2628 146.848V148H27.3528V135.4H35.9928V136.552H28.6848V141.034H35.2008V142.168H28.6848V146.848H36.2628ZM39.3938 135.4H44.5238C45.8558 135.4 47.0318 135.67 48.0518 136.21C49.0718 136.738 49.8638 137.482 50.4278 138.442C50.9918 139.39 51.2738 140.476 51.2738 141.7C51.2738 142.924 50.9918 144.016 50.4278 144.976C49.8638 145.924 49.0718 146.668 48.0518 147.208C47.0318 147.736 45.8558 148 44.5238 148H39.3938V135.4ZM44.4518 146.848C45.5558 146.848 46.5218 146.632 47.3498 146.2C48.1778 145.756 48.8198 145.15 49.2758 144.382C49.7318 143.602 49.9598 142.708 49.9598 141.7C49.9598 140.692 49.7318 139.804 49.2758 139.036C48.8198 138.256 48.1778 137.65 47.3498 137.218C46.5218 136.774 45.5558 136.552 44.4518 136.552H40.7258V146.848H44.4518ZM59.3409 148.108C57.7089 148.108 56.4369 147.64 55.5249 146.704C54.6129 145.768 54.1569 144.406 54.1569 142.618V135.4H55.4889V142.564C55.4889 144.028 55.8189 145.12 56.4789 145.84C57.1389 146.56 58.0929 146.92 59.3409 146.92C60.6009 146.92 61.5609 146.56 62.2209 145.84C62.8809 145.12 63.2109 144.028 63.2109 142.564V135.4H64.5069V142.618C64.5069 144.406 64.0509 145.768 63.1389 146.704C62.2389 147.64 60.9729 148.108 59.3409 148.108ZM73.9928 148.108C72.7448 148.108 71.6168 147.832 70.6088 147.28C69.6128 146.728 68.8268 145.966 68.2508 144.994C67.6868 144.01 67.4048 142.912 67.4048 141.7C67.4048 140.488 67.6868 139.396 68.2508 138.424C68.8268 137.44 69.6188 136.672 70.6268 136.12C71.6348 135.568 72.7628 135.292 74.0108 135.292C74.9468 135.292 75.8108 135.448 76.6028 135.76C77.3948 136.072 78.0668 136.528 78.6188 137.128L77.7728 137.974C76.7888 136.978 75.5468 136.48 74.0468 136.48C73.0508 136.48 72.1448 136.708 71.3288 137.164C70.5128 137.62 69.8708 138.244 69.4028 139.036C68.9468 139.828 68.7188 140.716 68.7188 141.7C68.7188 142.684 68.9468 143.572 69.4028 144.364C69.8708 145.156 70.5128 145.78 71.3288 146.236C72.1448 146.692 73.0508 146.92 74.0468 146.92C75.5588 146.92 76.8008 146.416 77.7728 145.408L78.6188 146.254C78.0668 146.854 77.3888 147.316 76.5848 147.64C75.7928 147.952 74.9288 148.108 73.9928 148.108ZM89.0438 144.634H82.0238L80.5118 148H79.1258L84.8858 135.4H86.1998L91.9598 148H90.5558L89.0438 144.634ZM88.5578 143.554L85.5338 136.786L82.5098 143.554H88.5578ZM95.8594 136.552H91.4314V135.4H101.619V136.552H97.1914V148H95.8594V136.552ZM103.747 135.4H105.079V148H103.747V135.4ZM114.687 148.108C113.439 148.108 112.305 147.832 111.285 147.28C110.277 146.716 109.485 145.948 108.909 144.976C108.345 144.004 108.063 142.912 108.063 141.7C108.063 140.488 108.345 139.396 108.909 138.424C109.485 137.452 110.277 136.69 111.285 136.138C112.305 135.574 113.439 135.292 114.687 135.292C115.935 135.292 117.057 135.568 118.053 136.12C119.061 136.672 119.853 137.44 120.429 138.424C121.005 139.396 121.293 140.488 121.293 141.7C121.293 142.912 121.005 144.01 120.429 144.994C119.853 145.966 119.061 146.728 118.053 147.28C117.057 147.832 115.935 148.108 114.687 148.108ZM114.687 146.92C115.683 146.92 116.583 146.698 117.387 146.254C118.191 145.798 118.821 145.174 119.277 144.382C119.733 143.578 119.961 142.684 119.961 141.7C119.961 140.716 119.733 139.828 119.277 139.036C118.821 138.232 118.191 137.608 117.387 137.164C116.583 136.708 115.683 136.48 114.687 136.48C113.691 136.48 112.785 136.708 111.969 137.164C111.165 137.608 110.529 138.232 110.061 139.036C109.605 139.828 109.377 140.716 109.377 141.7C109.377 142.684 109.605 143.578 110.061 144.382C110.529 145.174 111.165 145.798 111.969 146.254C112.785 146.698 113.691 146.92 114.687 146.92ZM134.809 135.4V148H133.711L125.611 137.776V148H124.279V135.4H125.377L133.495 145.624V135.4H134.809ZM152.65 148.198L150.904 146.398C149.836 147.538 148.432 148.108 146.692 148.108C145.876 148.108 145.144 147.976 144.496 147.712C143.86 147.436 143.362 147.058 143.002 146.578C142.642 146.086 142.462 145.528 142.462 144.904C142.462 144.148 142.702 143.47 143.182 142.87C143.662 142.27 144.478 141.64 145.63 140.98C145.03 140.356 144.616 139.828 144.388 139.396C144.16 138.952 144.046 138.484 144.046 137.992C144.046 137.188 144.334 136.54 144.91 136.048C145.486 135.556 146.26 135.31 147.232 135.31C148.132 135.31 148.846 135.532 149.374 135.976C149.902 136.42 150.166 137.032 150.166 137.812C150.166 138.436 149.956 139 149.536 139.504C149.116 139.996 148.39 140.542 147.358 141.142L150.814 144.706C151.198 144.022 151.48 143.212 151.66 142.276L152.704 142.6C152.476 143.728 152.104 144.694 151.588 145.498L153.388 147.352L152.65 148.198ZM147.232 136.264C146.608 136.264 146.116 136.42 145.756 136.732C145.408 137.044 145.234 137.458 145.234 137.974C145.234 138.346 145.33 138.7 145.522 139.036C145.714 139.372 146.092 139.828 146.656 140.404C147.568 139.876 148.198 139.426 148.546 139.054C148.894 138.682 149.068 138.274 149.068 137.83C149.068 137.35 148.906 136.972 148.582 136.696C148.258 136.408 147.808 136.264 147.232 136.264ZM146.764 147.046C148.156 147.046 149.284 146.572 150.148 145.624L146.35 141.718C145.354 142.282 144.664 142.792 144.28 143.248C143.908 143.704 143.722 144.214 143.722 144.778C143.722 145.462 143.998 146.014 144.55 146.434C145.114 146.842 145.852 147.046 146.764 147.046ZM169.294 146.848V148H160.384V135.4H169.024V136.552H161.716V141.034H168.232V142.168H161.716V146.848H169.294ZM182.955 135.4V148H181.857L173.757 137.776V148H172.425V135.4H173.523L181.641 145.624V135.4H182.955ZM189.516 136.552H185.088V135.4H195.276V136.552H190.848V148H189.516V136.552ZM206.314 146.848V148H197.404V135.4H206.044V136.552H198.736V141.034H205.252V142.168H198.736V146.848H206.314ZM218.049 148L215.169 143.95C214.845 143.986 214.509 144.004 214.161 144.004H210.777V148H209.445V135.4H214.161C215.769 135.4 217.029 135.784 217.941 136.552C218.853 137.32 219.309 138.376 219.309 139.72C219.309 140.704 219.057 141.538 218.553 142.222C218.061 142.894 217.353 143.38 216.429 143.68L219.507 148H218.049ZM214.125 142.87C215.373 142.87 216.327 142.594 216.987 142.042C217.647 141.49 217.977 140.716 217.977 139.72C217.977 138.7 217.647 137.92 216.987 137.38C216.327 136.828 215.373 136.552 214.125 136.552H210.777V142.87H214.125ZM227.168 135.4C228.776 135.4 230.036 135.784 230.948 136.552C231.86 137.32 232.316 138.376 232.316 139.72C232.316 141.064 231.86 142.12 230.948 142.888C230.036 143.644 228.776 144.022 227.168 144.022H223.784V148H222.452V135.4H227.168ZM227.132 142.852C228.38 142.852 229.334 142.582 229.994 142.042C230.654 141.49 230.984 140.716 230.984 139.72C230.984 138.7 230.654 137.92 229.994 137.38C229.334 136.828 228.38 136.552 227.132 136.552H223.784V142.852H227.132ZM243.801 148L240.921 143.95C240.597 143.986 240.261 144.004 239.913 144.004H236.529V148H235.197V135.4H239.913C241.521 135.4 242.781 135.784 243.693 136.552C244.605 137.32 245.061 138.376 245.061 139.72C245.061 140.704 244.809 141.538 244.305 142.222C243.813 142.894 243.105 143.38 242.181 143.68L245.259 148H243.801ZM239.877 142.87C241.125 142.87 242.079 142.594 242.739 142.042C243.399 141.49 243.729 140.716 243.729 139.72C243.729 138.7 243.399 137.92 242.739 137.38C242.079 136.828 241.125 136.552 239.877 136.552H236.529V142.87H239.877ZM248.204 135.4H249.536V148H248.204V135.4ZM257.11 148.108C256.174 148.108 255.274 147.958 254.41 147.658C253.558 147.358 252.898 146.962 252.43 146.47L252.952 145.444C253.408 145.9 254.014 146.272 254.77 146.56C255.526 146.836 256.306 146.974 257.11 146.974C258.238 146.974 259.084 146.77 259.648 146.362C260.212 145.942 260.494 145.402 260.494 144.742C260.494 144.238 260.338 143.836 260.026 143.536C259.726 143.236 259.354 143.008 258.91 142.852C258.466 142.684 257.848 142.504 257.056 142.312C256.108 142.072 255.352 141.844 254.788 141.628C254.224 141.4 253.738 141.058 253.33 140.602C252.934 140.146 252.736 139.528 252.736 138.748C252.736 138.112 252.904 137.536 253.24 137.02C253.576 136.492 254.092 136.072 254.788 135.76C255.484 135.448 256.348 135.292 257.38 135.292C258.1 135.292 258.802 135.394 259.486 135.598C260.182 135.79 260.782 136.06 261.286 136.408L260.836 137.47C260.308 137.122 259.744 136.864 259.144 136.696C258.544 136.516 257.956 136.426 257.38 136.426C256.276 136.426 255.442 136.642 254.878 137.074C254.326 137.494 254.05 138.04 254.05 138.712C254.05 139.216 254.2 139.624 254.5 139.936C254.812 140.236 255.196 140.47 255.652 140.638C256.12 140.794 256.744 140.968 257.524 141.16C258.448 141.388 259.192 141.616 259.756 141.844C260.332 142.06 260.818 142.396 261.214 142.852C261.61 143.296 261.808 143.902 261.808 144.67C261.808 145.306 261.634 145.888 261.286 146.416C260.95 146.932 260.428 147.346 259.72 147.658C259.012 147.958 258.142 148.108 257.11 148.108ZM273.62 146.848V148H264.71V135.4H273.35V136.552H266.042V141.034H272.558V142.168H266.042V146.848H273.62Z" fill="white"/>
</svg>
