<svg xmlns="http://www.w3.org/2000/svg" viewBox="0 -0.5 10 10" shape-rendering="crispEdges">
<metadata>Made with Pixels to Svg https://codepen.io/shshaw/pen/XbxvNj</metadata>
<path stroke="#000000" d="M3 1h4M2 2h1M6 2h1M2 3h1M7 3h1M1 4h1M7 4h1M2 5h1M6 5h1M2 6h1M5 6h1M2 7h1M6 7h1M2 8h1M5 8h1M2 9h4" />
<path stroke="#663931" d="M3 2h3M3 3h4M2 4h2" />
<path stroke="#4b692f" d="M4 4h1M6 4h1" />
<path stroke="#eec39a" d="M5 4h1M3 5h3M3 7h1M5 7h1" />
<path stroke="#d95763" d="M3 6h2M4 7h1" />
<path stroke="#222034" d="M3 8h2" />
</svg>