<svg xmlns="http://www.w3.org/2000/svg" viewBox="0 -0.5 10 10" shape-rendering="crispEdges">
<metadata>Made with Pixels to Svg https://codepen.io/shshaw/pen/XbxvNj</metadata>
<path stroke="#000000" d="M3 1h4M2 2h1M7 2h1M2 3h1M7 3h1M1 4h1M7 4h1M1 5h1M3 5h1M7 5h1M2 6h2M8 6h1M3 7h1M7 7h1M4 8h3" />
<path stroke="#45283c" d="M3 2h4M3 3h2M2 4h3M2 5h1M4 5h1" />
<path stroke="#eec39a" d="M5 3h2M5 4h1M7 6h1M5 7h1" />
<path stroke="#5fcde4" d="M6 4h1" />
<path stroke="#4b692f" d="M5 5h2M4 6h3M4 7h1M6 7h1" />
</svg>