<svg xmlns="http://www.w3.org/2000/svg" viewBox="0 -0.5 10 10" shape-rendering="crispEdges">
<metadata>Made with Pixels to Svg https://codepen.io/shshaw/pen/XbxvNj</metadata>
<path stroke="#000000" d="M4 1h4M3 2h1M8 2h1M3 3h1M8 3h1M3 4h1M8 4h1M3 5h1M7 5h1M3 6h1M7 6h1M3 7h1M7 7h1M3 8h1M7 8h1M4 9h3" />
<path stroke="#45283c" d="M4 2h1M4 3h1M5 4h3M6 5h1" />
<path stroke="#eec39a" d="M5 2h3M6 3h1M4 4h1M4 7h1M6 7h1" />
<path stroke="#639bff" d="M5 3h1M7 3h1" />
<path stroke="#3f3f74" d="M4 5h2M4 6h3M5 7h1" />
<path stroke="#306082" d="M4 8h3" />
</svg>