<?xml version="1.0" encoding="UTF-8" ?>
<svg version="1.1" width="1000" height="1000" xmlns="http://www.w3.org/2000/svg" shape-rendering="crispEdges">
<rect x="300" y="100" width="100" height="100" fill="#000000" />
<rect x="400" y="100" width="100" height="100" fill="#000000" />
<rect x="500" y="100" width="100" height="100" fill="#000000" />
<rect x="600" y="100" width="100" height="100" fill="#000000" />
<rect x="200" y="200" width="100" height="100" fill="#000000" />
<rect x="300" y="200" width="100" height="100" fill="#E3CB50" />
<rect x="400" y="200" width="100" height="100" fill="#E3CB50" />
<rect x="500" y="200" width="100" height="100" fill="#E3CB50" />
<rect x="600" y="200" width="100" height="100" fill="#E3CB50" />
<rect x="700" y="200" width="100" height="100" fill="#000000" />
<rect x="100" y="300" width="100" height="100" fill="#000000" />
<rect x="200" y="300" width="100" height="100" fill="#E3CB50" />
<rect x="300" y="300" width="100" height="100" fill="#E3CB50" />
<rect x="400" y="300" width="100" height="100" fill="#5B6EE1" />
<rect x="500" y="300" width="100" height="100" fill="#EEC39A" />
<rect x="600" y="300" width="100" height="100" fill="#5B6EE1" />
<rect x="700" y="300" width="100" height="100" fill="#000000" />
<rect x="100" y="400" width="100" height="100" fill="#000000" />
<rect x="200" y="400" width="100" height="100" fill="#E3CB50" />
<rect x="300" y="400" width="100" height="100" fill="#EEC39A" />
<rect x="400" y="400" width="100" height="100" fill="#EEC39A" />
<rect x="500" y="400" width="100" height="100" fill="#EEC39A" />
<rect x="600" y="400" width="100" height="100" fill="#E3CB50" />
<rect x="700" y="400" width="100" height="100" fill="#000000" />
<rect x="100" y="500" width="100" height="100" fill="#000000" />
<rect x="200" y="500" width="100" height="100" fill="#E3CB50" />
<rect x="300" y="500" width="100" height="100" fill="#D77BBA" />
<rect x="400" y="500" width="100" height="100" fill="#D77BBA" />
<rect x="500" y="500" width="100" height="100" fill="#D77BBA" />
<rect x="600" y="500" width="100" height="100" fill="#000000" />
<rect x="200" y="600" width="100" height="100" fill="#000000" />
<rect x="300" y="600" width="100" height="100" fill="#EEC39A" />
<rect x="400" y="600" width="100" height="100" fill="#D77BBA" />
<rect x="500" y="600" width="100" height="100" fill="#D77BBA" />
<rect x="600" y="600" width="100" height="100" fill="#EEC39A" />
<rect x="700" y="600" width="100" height="100" fill="#000000" />
<rect x="200" y="700" width="100" height="100" fill="#000000" />
<rect x="300" y="700" width="100" height="100" fill="#D77BBA" />
<rect x="400" y="700" width="100" height="100" fill="#D77BBA" />
<rect x="500" y="700" width="100" height="100" fill="#D77BBA" />
<rect x="600" y="700" width="100" height="100" fill="#000000" />
<rect x="200" y="800" width="100" height="100" fill="#000000" />
<rect x="300" y="800" width="100" height="100" fill="#000000" />
<rect x="400" y="800" width="100" height="100" fill="#000000" />
<rect x="500" y="800" width="100" height="100" fill="#000000" />
<rect x="600" y="800" width="100" height="100" fill="#000000" />
</svg>