<svg xmlns="http://www.w3.org/2000/svg" viewBox="0 -0.5 10 10" shape-rendering="crispEdges">
<metadata>Made with Pixels to Svg https://codepen.io/shshaw/pen/XbxvNj</metadata>
<path stroke="#000000" d="M4 0h1M6 0h1M3 1h1M5 1h1M7 1h1M2 2h1M6 2h1M2 3h1M7 3h1M2 4h1M6 4h1M2 5h1M5 5h1M2 6h1M6 6h1M2 7h1M5 7h1M2 8h4" />
<path stroke="#fbf236" d="M4 1h1M6 1h1M3 2h3M3 3h1" />
<path stroke="#306082" d="M4 3h1M6 3h1" />
<path stroke="#eec39a" d="M5 3h1M3 4h3M3 6h1M5 6h1" />
<path stroke="#595652" d="M3 5h2M4 6h1" />
<path stroke="#222034" d="M3 7h2" />
</svg>