<svg xmlns="http://www.w3.org/2000/svg" viewBox="0 -0.5 10 10" shape-rendering="crispEdges">
<metadata>Made with Pixels to Svg https://codepen.io/shshaw/pen/XbxvNj</metadata>
<path stroke="#000000" d="M4 1h3M3 2h1M7 2h1M2 3h1M7 3h1M3 4h1M7 4h1M3 5h1M6 5h1M3 6h1M7 6h1M3 7h1M6 7h1M3 8h4" />
<path stroke="#d9a066" d="M4 2h3M3 3h1" />
<path stroke="#eec39a" d="M4 3h1M6 3h1M4 4h3M4 6h1M6 6h1" />
<path stroke="#5b6ee1" d="M5 3h1" />
<path stroke="#847e87" d="M4 5h2M5 6h1" />
<path stroke="#323c39" d="M4 7h2" />
</svg>