<svg xmlns="http://www.w3.org/2000/svg" viewBox="0 -0.5 10 10" shape-rendering="crispEdges">
<metadata>Made with Pixels to Svg https://codepen.io/shshaw/pen/XbxvNj</metadata>
<path stroke="#000000" d="M3 1h3M2 2h1M6 2h1M2 3h1M6 3h1M2 4h1M7 4h1M3 5h1M6 5h1M3 6h1M6 6h1M3 7h1M6 7h1M3 8h4" />
<path stroke="#222034" d="M3 2h3M3 3h1M3 4h1" />
<path stroke="#eec39a" d="M4 3h1M4 4h3M4 7h1" />
<path stroke="#cbdbfc" d="M5 3h1" />
<path stroke="#306082" d="M4 5h2M4 6h2" />
<path stroke="#3f3f74" d="M5 7h1" />
</svg>