<?xml version="1.0" encoding="utf-8"?>
<!-- Generator: Adobe Illustrator 24.3.0, SVG Export Plug-In . SVG Version: 6.00 Build 0)  -->
<svg version="1.1" id="Capa_1" shape-rendering="crispEdges"
	 xmlns="http://www.w3.org/2000/svg" xmlns:xlink="http://www.w3.org/1999/xlink" x="0px" y="0px" viewBox="0 0 10 10"
	 style="enable-background:new 0 0 10 10;" xml:space="preserve">
<style type="text/css">
	.st0{stroke:#000000;}
	.st1{stroke:#45283C;}
	.st2{stroke:#306082;}
	.st3{stroke:#EEC39A;}
	.st4{stroke:#323C39;}
	.st5{stroke:#3F3F74;}
</style>
<path class="st0" d="M3,1.5h1 M6,1.5h1 M2,2.5h1 M7,2.5h1 M2,3.5h1 M7,3.5h1 M3,4.5h1 M6,4.5h1 M3,5.5h1 M6,5.5h1 M3,6.5h1 M6,6.5h1
	 M3,7.5h1 M6,7.5h1 M3,8.5h4 M7,0.5 M3,0.5 M4,0.5h2"/>
<path class="st1" d="M4,1.5h2 M3,2.5h1 M3,3.5h1"/>
<path class="st2" d="M4,2.5h1 M6,2.5h1"/>
<path class="st3" d="M5,2.5h1 M4,3.5h3 M4,6.5h1"/>
<path class="st4" d="M4,4.5h2 M4,5.5h2 M5,6.5h1"/>
<path class="st5" d="M4,7.5h2"/>
</svg>
