<svg xmlns="http://www.w3.org/2000/svg" viewBox="0 -0.5 10 10" shape-rendering="crispEdges">
<metadata>Made with Pixels to Svg https://codepen.io/shshaw/pen/XbxvNj</metadata>
<path stroke="#000000" d="M2 1h5M1 2h1M7 2h1M1 3h1M7 3h1M1 4h1M7 4h1M1 5h1M7 5h1M2 6h1M6 6h1M8 6h1M2 7h1M6 7h2M3 8h4" />
<path stroke="#45283c" d="M2 2h5M2 3h2M6 3h1M2 4h2M2 5h2M6 5h1" />
<path stroke="#eec39a" d="M4 3h2M5 4h1M7 6h1M4 7h1" />
<path stroke="#37946e" d="M4 4h1M6 4h1" />
<path stroke="#323c39" d="M4 5h2M3 6h3M3 7h1M5 7h1" />
</svg>