<svg xmlns="http://www.w3.org/2000/svg" viewBox="0 -0.5 10 10" shape-rendering="crispEdges">
<metadata>Made with Pixels to Svg https://codepen.io/shshaw/pen/XbxvNj</metadata>
<path stroke="#000000" d="M3 1h3M2 2h1M6 2h1M1 3h1M7 3h1M1 4h1M7 4h1M1 5h1M7 5h1M2 6h1M6 6h1M2 7h1M7 7h1M2 8h5" />
<path stroke="#d97257" d="M3 2h3M2 3h2M5 3h2M2 4h1M2 5h1M6 5h1" />
<path stroke="#eab787" d="M4 3h1M3 4h1M5 4h1M3 5h3M3 7h1M6 7h1" />
<path stroke="#3f3f74" d="M4 4h1M6 4h1" />
<path stroke="#fbf236" d="M3 6h3M4 7h2" />
</svg>