<svg xmlns="http://www.w3.org/2000/svg" viewBox="0 -0.5 115 43" shape-rendering="crispEdges">
<metadata>Made with Pixels to Svg https://codepen.io/shshaw/pen/XbxvNj</metadata>
<path stroke="#222034" d="M67 1h5M65 2h3M71 2h3M64 3h2M73 3h2M64 4h1M74 4h1M63 5h2M74 5h2M63 6h1M75 6h1M63 7h1M75 7h1M63 8h1M75 8h1M63 9h2M74 9h2M64 10h1M74 10h1M64 11h2M73 11h2M65 12h2M72 12h2M60 13h7M72 13h7M59 14h21M59 15h2M78 15h2M59 16h1M79 16h1M59 17h1M79 17h1M59 18h2M78 18h2M2 19h12M15 19h11M27 19h13M41 19h10M52 19h13M74 19h13M88 19h12M101 19h12M1 20h64M74 20h40M1 21h1M14 21h2M26 21h1M33 21h1M40 21h1M51 21h1M57 21h2M64 21h1M74 21h1M81 21h1M87 21h1M100 21h2M112 21h2M1 22h1M14 22h2M26 22h1M33 22h1M40 22h1M51 22h1M58 22h1M64 22h1M74 22h1M81 22h1M87 22h1M100 22h2M112 22h2M1 23h1M15 23h1M26 23h1M33 23h1M40 23h1M51 23h1M58 23h1M64 23h1M74 23h1M81 23h1M87 23h1M101 23h1M112 23h2M1 24h1M15 24h1M26 24h1M33 24h1M40 24h1M51 24h1M59 24h1M64 24h1M74 24h1M81 24h1M87 24h1M101 24h1M112 24h2M1 25h1M8 25h1M15 25h1M26 25h1M33 25h1M40 25h1M51 25h1M59 25h1M64 25h1M74 25h1M81 25h1M87 25h1M94 25h1M101 25h1M112 25h2M1 26h1M8 26h1M15 26h1M21 26h6M33 26h1M40 26h1M46 26h6M64 26h1M74 26h1M81 26h1M87 26h1M94 26h1M101 26h1M107 26h7M1 27h1M14 27h2M26 27h1M33 27h1M39 27h1M51 27h1M64 27h1M74 27h1M81 27h1M87 27h1M100 27h2M112 27h2M1 28h1M12 28h4M26 28h2M33 28h1M39 28h1M51 28h1M64 28h1M74 28h1M81 28h1M87 28h1M98 28h4M112 28h2M1 29h1M14 29h2M21 29h7M33 29h1M39 29h1M46 29h6M64 29h1M74 29h1M81 29h1M87 29h1M100 29h2M107 29h7M1 30h1M15 30h1M26 30h2M33 30h1M39 30h1M51 30h1M56 30h1M64 30h1M74 30h1M81 30h1M87 30h1M101 30h1M112 30h2M1 31h1M8 31h1M15 31h1M26 31h3M38 31h2M51 31h1M56 31h1M64 31h1M74 31h1M87 31h1M94 31h1M101 31h1M112 31h2M1 32h1M8 32h1M15 32h1M26 32h3M38 32h2M51 32h1M57 32h1M64 32h1M74 32h1M87 32h1M94 32h1M101 32h1M112 32h2M1 33h1M8 33h1M15 33h1M26 33h3M38 33h2M51 33h1M57 33h1M64 33h1M74 33h1M87 33h1M94 33h1M101 33h1M112 33h2M1 34h1M8 34h1M15 34h1M26 34h3M38 34h2M51 34h1M57 34h2M64 34h1M74 34h2M86 34h2M94 34h1M101 34h1M112 34h2M1 35h65M73 35h41M1 36h65M73 36h41M1 37h26M28 37h11M40 37h18M59 37h8M72 37h42M2 38h13M16 38h10M29 38h9M40 38h12M53 38h5M60 38h4M65 38h3M71 38h3M75 38h12M88 38h13M102 38h11M66 39h3M70 39h3M67 40h5M68 41h3" />
<path stroke="#ffffff" d="M68 2h1M67 4h1M66 5h1M68 6h1M65 7h1M65 8h1M65 10h1M66 11h1M68 11h1M67 13h1M61 15h1M64 15h1M68 15h1M75 15h1M60 16h1M67 16h1M71 16h1M74 16h1M66 17h1M70 17h1M65 20h4M2 21h11M16 21h10M27 21h6M34 21h6M41 21h10M52 21h5M59 21h5M65 21h4M75 21h6M82 21h5M88 21h11M102 21h10M2 22h12M16 22h10M27 22h6M34 22h6M41 22h10M52 22h6M59 22h5M65 22h4M75 22h6M82 22h5M88 22h12M102 22h10M2 23h12M16 23h10M27 23h6M34 23h5M41 23h10M52 23h6M59 23h5M65 23h4M75 23h6M82 23h5M88 23h12M102 23h10M2 24h13M16 24h10M27 24h6M34 24h5M41 24h10M52 24h7M60 24h4M65 24h4M75 24h6M82 24h5M88 24h13M102 24h10M2 25h6M9 25h6M16 25h10M27 25h6M34 25h5M41 25h10M52 25h7M60 25h4M65 25h4M75 25h6M82 25h5M88 25h6M95 25h6M102 25h10M2 26h6M9 26h5M16 26h5M27 26h6M34 26h5M41 26h5M52 26h12M65 26h4M75 26h6M82 26h5M88 26h6M95 26h5M102 26h5M2 27h12M16 27h10M27 27h6M34 27h5M41 27h10M52 27h12M65 27h4M75 27h6M82 27h5M88 27h12M102 27h10M65 28h4M13 29h1M20 29h1M28 29h1M32 29h1M34 29h1M38 29h1M45 29h1M52 29h1M63 29h1M65 29h4M75 29h1M80 29h1M82 29h1M99 29h1M106 29h1M7 30h1M25 30h1M32 30h1M34 30h1M50 30h1M52 30h1M63 30h1M65 30h4M80 30h1M82 30h1M93 30h1M111 30h1M7 31h1M9 31h1M25 31h1M50 31h1M52 31h1M57 31h1M63 31h1M65 31h2M69 31h1M93 31h1M95 31h1M111 31h1M7 32h1M9 32h1M25 32h1M29 32h1M37 32h1M50 32h1M52 32h1M56 32h1M63 32h1M65 32h1M67 32h5M93 32h1M95 32h1M111 32h1M7 33h1M9 33h1M25 33h1M29 33h1M37 33h1M50 33h1M52 33h1M56 33h1M58 33h1M63 33h1M66 33h7M93 33h1M95 33h1M111 33h1M2 34h6M9 34h6M16 34h10M30 34h7M41 34h10M52 34h5M59 34h5M65 34h9M76 34h9M88 34h6M95 34h6M102 34h10M66 35h7M66 36h7M67 37h5M68 38h3M69 39h1" />
<path stroke="#fbf236" d="M69 2h1M66 3h5M65 4h2M65 5h1M64 6h2M64 7h1M64 8h1M65 9h2M66 10h2M67 11h1M69 11h1M67 12h3M68 13h1M62 15h2M65 15h3M69 15h6M76 15h1M61 16h6M68 16h3M72 16h2M75 16h3M60 17h6M67 17h3M71 17h7M61 18h2M75 18h2" />
<path stroke="#df7126" d="M70 2h1M71 3h1M71 4h3M72 5h1M72 9h1M71 10h1M70 11h1M69 13h1M63 18h7M71 18h1" />
<path stroke="#663931" d="M72 3h1M73 5h1M73 6h2M73 7h2M73 8h2M73 9h1M72 10h2M71 11h2M70 12h2M70 13h2M77 15h1M78 16h1M78 17h1M70 18h1M72 18h3M77 18h1" />
<path stroke="#37946e" d="M68 4h3M67 5h1M70 5h2M66 6h1M71 6h1M66 7h1M71 7h1M66 8h1M71 8h1M67 9h1M70 9h1" />
<path stroke="#99e550" d="M68 5h1M67 6h1M69 6h1M68 7h1" />
<path stroke="#6abe30" d="M69 5h1M70 6h1M67 7h1M69 7h2M67 8h4M68 9h2" />
<path stroke="#306082" d="M72 6h1M72 7h1M72 8h1M71 9h1M68 10h3" />
<path stroke="#cbdbfc" d="M65 19h4M70 20h4M70 21h4M70 22h4M14 23h1M39 23h1M70 23h4M100 23h1M39 24h1M70 24h4M39 25h1M70 25h4M14 26h1M39 26h1M70 26h4M100 26h1M40 27h1M70 27h4M2 28h1M11 28h1M16 28h1M25 28h1M28 28h1M32 28h1M34 28h1M38 28h1M40 28h1M50 28h1M52 28h1M63 28h1M70 28h4M75 28h1M80 28h1M82 28h1M86 28h1M88 28h1M97 28h1M102 28h1M111 28h1M2 29h11M16 29h4M29 29h3M35 29h3M40 29h5M53 29h10M70 29h4M76 29h4M83 29h4M88 29h11M102 29h4M2 30h5M9 30h6M16 30h9M28 30h4M35 30h4M40 30h10M53 30h3M57 30h6M70 30h4M75 30h5M83 30h4M88 30h5M95 30h6M102 30h9M2 31h5M10 31h5M16 31h9M29 31h9M40 31h10M53 31h3M58 31h5M67 31h2M72 31h2M75 31h12M88 31h5M96 31h5M102 31h9M2 32h5M10 32h5M16 32h9M30 32h7M40 32h10M53 32h3M58 32h5M66 32h1M73 32h1M75 32h12M88 32h5M96 32h5M102 32h9M2 33h5M10 33h5M16 33h9M30 33h7M40 33h10M53 33h3M59 33h4M65 33h1M75 33h12M88 33h5M96 33h5M102 33h9M29 34h1M40 34h1M85 34h1" />
<path stroke="#9badb7" d="M69 19h5M69 20h1M13 21h1M69 21h1M99 21h1M69 22h1M69 23h1M69 24h1M69 25h1M69 26h1M69 27h1M3 28h8M17 28h8M29 28h3M35 28h3M41 28h9M53 28h10M69 28h1M76 28h4M83 28h3M89 28h8M103 28h8M69 29h1M8 30h1M69 30h1M94 30h1M70 31h2M72 32h1M73 33h1M37 34h1" />
</svg>