<svg width="121" height="124" viewBox="0 0 121 124" fill="none" xmlns="http://www.w3.org/2000/svg">
<g clip-path="url(#clip0)">
<path d="M16.0134 0H111.78C116.872 0 121 4.14818 121 9.26592V103.372C121 109.189 119.693 115.013 116.691 119.987C116.161 120.864 115.558 121.487 114.824 121.651C111.585 122.392 106.768 113.834 103.415 114.205C100.132 114.577 97.2956 124.002 93.9201 124.002C90.5446 124.002 87.7086 114.574 84.4249 114.205C81.0718 113.834 76.2436 122.394 73.0159 121.651C69.7322 120.911 69.0629 111.09 65.9404 109.979C62.7708 108.867 56.1564 116.129 53.1592 114.669C50.1397 113.209 51.673 103.482 48.8504 101.698C46.0278 99.914 37.9607 105.509 35.3552 103.412C32.7385 101.315 36.3915 92.1778 34.0301 89.8045C31.6686 87.4312 22.5763 91.089 20.4901 88.4728C18.4039 85.843 23.9708 77.7491 22.1846 74.8989C20.4095 72.0735 10.742 73.6144 9.28927 70.5798C7.83656 67.5676 15.062 60.9202 13.9451 57.7371C12.8505 54.5877 3.07777 53.9151 2.34134 50.6262C1.60492 47.3711 10.1197 42.5301 9.75037 39.1603C9.38104 35.8557 0 33.0055 0 29.6131C0 26.2208 9.38104 23.3706 9.74814 20.0705C10.1175 16.7007 1.60044 11.8484 2.3391 8.60455C3.07777 5.30445 12.8483 4.63183 13.954 1.4937L13.9585 1.48021C14.2338 0.665868 15.1583 0 16.0134 0Z" fill="#BF3312"/>
<path d="M52.5081 40.2991C51.8039 39.5948 51.2141 38.8184 50.739 37.9699C50.2808 37.1213 50.005 36.3449 49.9116 35.6407L52.1645 34.7879C52.2663 35.4497 52.4954 36.1286 52.8518 36.8244C53.2082 37.5202 53.6494 38.1311 54.1755 38.6572C54.761 39.2427 55.2786 39.5906 55.7283 39.7009C56.1865 39.8027 56.5599 39.7094 56.8484 39.4209C57.0605 39.2087 57.1496 38.9499 57.1156 38.6445C57.0987 38.339 57.0011 38.0123 56.8229 37.6644C56.6532 37.325 56.3986 36.8838 56.0592 36.3407C55.5416 35.5007 55.1471 34.7837 54.8755 34.1897C54.604 33.5957 54.4895 32.9636 54.5319 32.2932C54.5828 31.6314 54.9052 31.0035 55.4992 30.4095C56.0168 29.8919 56.6235 29.5652 57.3193 29.4294C58.0236 29.2852 58.7788 29.37 59.5849 29.684C60.3995 30.0064 61.214 30.575 62.0286 31.3895C62.5971 31.9581 63.085 32.5817 63.4923 33.2605C63.8996 33.9394 64.1796 34.6097 64.3324 35.2716L62.1304 36.2007C61.7741 34.9109 61.1843 33.8545 60.3613 33.0314C59.7843 32.4544 59.2624 32.1193 58.7957 32.0259C58.3375 31.9411 57.9557 32.0514 57.6502 32.3569C57.3447 32.6623 57.2726 33.0484 57.4338 33.5151C57.612 33.9818 57.9557 34.6139 58.4648 35.4116C58.9824 36.2516 59.377 36.9686 59.6485 37.5626C59.92 38.1566 60.0346 38.7802 59.9922 39.4336C59.9582 40.0954 59.6443 40.7234 59.0503 41.3173C58.5412 41.8264 57.9302 42.1489 57.2175 42.2846C56.5217 42.4204 55.7665 42.3271 54.9519 42.0046C54.1373 41.6822 53.3227 41.1137 52.5081 40.2991ZM66.8995 50.5666L62.763 46.4301L60.0646 47.5501L57.9518 45.4373L70.8325 40.4989L72.8689 42.5353L67.9432 55.4287L65.7795 53.265L66.8995 50.5666ZM67.816 48.352L69.8142 43.5281L64.9904 45.5264L67.816 48.352ZM79.0499 48.7163L81.1119 50.7782L73.8824 58.0077L78.3499 62.4752L76.6698 64.1553L70.1404 57.6259L79.0499 48.7163ZM87.6478 71.8241L85.9932 73.4787L79.0947 66.5802L88.0042 57.6706L94.7373 64.4037L93.0827 66.0583L88.3988 61.3744L86.4641 63.3091L90.6007 67.4457L88.997 69.0494L84.8604 64.9128L82.7985 66.9747L87.6478 71.8241Z" fill="white"/>
</g>
<defs>
<clipPath id="clip0">
<rect width="121" height="124" fill="white"/>
</clipPath>
</defs>
</svg>
