<?xml version="1.0" encoding="utf-8"?>
<!-- Generator: Adobe Illustrator 24.3.0, SVG Export Plug-In . SVG Version: 6.00 Build 0)  -->
<svg version="1.1" id="Capa_1" xmlns="http://www.w3.org/2000/svg" xmlns:xlink="http://www.w3.org/1999/xlink" x="0px" y="0px"
	 viewBox="0 0 745.71 240.16" style="enable-background:new 0 0 745.71 240.16;" xml:space="preserve">
<style type="text/css">
	.st0{fill:#76CBD2;}
	.st1{fill:#1A9CC0;}
</style>
<g>
	<path class="st0" d="M245.41,39.4c-1.34,0-2.45-0.43-3.31-1.3c-0.86-0.86-1.3-1.97-1.3-3.31s0.43-2.45,1.3-3.31
		c0.86-0.86,1.97-1.3,3.31-1.3h51.36c1.34,0,2.45,0.43,3.31,1.3c0.86,0.86,1.3,1.97,1.3,3.31s-0.43,2.45-1.3,3.31
		c-0.86,0.86-1.97,1.3-3.31,1.3H245.41z M271.13,105.16c-1.41,0-2.59-0.48-3.55-1.44s-1.44-2.14-1.44-3.55V30.18h9.98v69.98
		c0,1.41-0.48,2.59-1.44,3.55S272.54,105.16,271.13,105.16z"/>
</g>
<g>
	<path class="st1" d="M328.83,105.54c-4.67,0-8.87-1.17-12.58-3.5c-3.71-2.34-6.64-5.5-8.78-9.5c-2.14-4-3.22-8.53-3.22-13.58
		c0-5.06,1.17-9.6,3.5-13.63c2.33-4.03,5.5-7.21,9.5-9.55c4-2.33,8.5-3.5,13.49-3.5s9.47,1.17,13.44,3.5
		c3.97,2.34,7.12,5.52,9.46,9.55c2.34,4.03,3.5,8.58,3.5,13.63h-3.74c0,5.06-1.07,9.58-3.22,13.58c-2.14,4-5.07,7.17-8.78,9.5
		S333.5,105.54,328.83,105.54z M330.75,96.9c3.26,0,6.17-0.78,8.74-2.35c2.56-1.57,4.58-3.71,6.05-6.43
		c1.47-2.72,2.21-5.78,2.21-9.17c0-3.46-0.74-6.54-2.21-9.26c-1.47-2.72-3.49-4.86-6.05-6.43c-2.56-1.57-5.47-2.35-8.74-2.35
		c-3.2,0-6.1,0.79-8.69,2.35c-2.59,1.57-4.64,3.71-6.14,6.43c-1.5,2.72-2.26,5.81-2.26,9.26c0,3.39,0.75,6.45,2.26,9.17
		c1.5,2.72,3.55,4.86,6.14,6.43C324.65,96.12,327.55,96.9,330.75,96.9z M352.25,105.26c-1.41,0-2.58-0.46-3.5-1.39
		c-0.93-0.93-1.39-2.1-1.39-3.5V85.67l1.82-10.18l7.97,3.46v21.41c0,1.41-0.46,2.58-1.39,3.5
		C354.83,104.79,353.66,105.26,352.25,105.26z"/>
	<path class="st1" d="M398.14,105.54c-4.99,0-9.47-1.17-13.44-3.5c-3.97-2.34-7.1-5.52-9.41-9.55c-2.3-4.03-3.49-8.58-3.55-13.63
		V35.08c0-1.47,0.46-2.65,1.39-3.55c0.93-0.9,2.1-1.34,3.5-1.34c1.47,0,2.66,0.45,3.55,1.34c0.9,0.9,1.34,2.08,1.34,3.55V61
		c2.24-2.69,4.94-4.81,8.11-6.38s6.64-2.35,10.42-2.35c4.67,0,8.86,1.17,12.58,3.5c3.71,2.34,6.64,5.5,8.78,9.5
		c2.14,4,3.22,8.53,3.22,13.58c0,5.06-1.17,9.6-3.5,13.63c-2.34,4.03-5.49,7.22-9.46,9.55
		C407.71,104.38,403.19,105.54,398.14,105.54z M398.14,96.9c3.26,0,6.18-0.78,8.74-2.35c2.56-1.57,4.59-3.73,6.1-6.48
		c1.5-2.75,2.26-5.82,2.26-9.22c0-3.46-0.75-6.53-2.26-9.22c-1.5-2.69-3.54-4.81-6.1-6.38c-2.56-1.57-5.47-2.35-8.74-2.35
		c-3.2,0-6.1,0.79-8.69,2.35c-2.59,1.57-4.62,3.7-6.1,6.38c-1.47,2.69-2.21,5.76-2.21,9.22c0,3.39,0.74,6.47,2.21,9.22
		c1.47,2.75,3.5,4.91,6.1,6.48C392.04,96.12,394.94,96.9,398.14,96.9z"/>
	<path class="st1" d="M451.71,105.16c-2.82,0-5.31-0.77-7.49-2.3c-2.18-1.54-3.87-3.63-5.09-6.29c-1.22-2.65-1.82-5.71-1.82-9.17
		V34.98c0-1.41,0.45-2.56,1.34-3.46c0.9-0.9,2.05-1.34,3.46-1.34c1.41,0,2.56,0.45,3.46,1.34c0.9,0.9,1.34,2.05,1.34,3.46V87.4
		c0,2.37,0.45,4.32,1.34,5.86c0.9,1.54,2.05,2.3,3.46,2.3h2.4c1.28,0,2.32,0.45,3.12,1.34c0.8,0.9,1.2,2.05,1.2,3.46
		s-0.61,2.56-1.82,3.46c-1.22,0.9-2.78,1.34-4.7,1.34H451.71z"/>
	<path class="st1" d="M492.7,105.54c-5.31,0-10.03-1.14-14.16-3.41c-4.13-2.27-7.36-5.41-9.7-9.41c-2.34-4-3.5-8.59-3.5-13.78
		c0-5.25,1.1-9.87,3.31-13.87c2.21-4,5.26-7.13,9.17-9.41c3.9-2.27,8.38-3.41,13.44-3.41c4.99,0,9.28,1.1,12.86,3.31
		c3.58,2.21,6.32,5.25,8.21,9.12c1.89,3.87,2.83,8.34,2.83,13.39c0,1.22-0.42,2.22-1.25,3.02c-0.83,0.8-1.89,1.2-3.17,1.2h-38.69
		v-7.68h38.4l-3.94,2.69c-0.06-3.2-0.71-6.06-1.92-8.59c-1.22-2.53-2.94-4.53-5.18-6c-2.24-1.47-4.96-2.21-8.16-2.21
		c-3.65,0-6.77,0.8-9.36,2.4c-2.59,1.6-4.56,3.79-5.9,6.58c-1.34,2.79-2.02,5.94-2.02,9.46s0.8,6.66,2.4,9.41
		c1.6,2.75,3.81,4.93,6.62,6.53c2.82,1.6,6.05,2.4,9.7,2.4c1.98,0,4.02-0.37,6.1-1.1c2.08-0.74,3.76-1.58,5.04-2.54
		c0.96-0.7,2-1.07,3.12-1.1c1.12-0.03,2.09,0.3,2.93,1.01c1.09,0.96,1.66,2.02,1.73,3.17c0.06,1.15-0.45,2.14-1.54,2.98
		c-2.18,1.73-4.88,3.14-8.11,4.22C498.73,105,495.64,105.54,492.7,105.54z"/>
	<path class="st1" d="M525.43,62.82c-1.34,0-2.43-0.38-3.26-1.15c-0.83-0.77-1.25-1.73-1.25-2.88c0-1.28,0.42-2.3,1.25-3.07
		c0.83-0.77,1.92-1.15,3.26-1.15h22.18c1.34,0,2.43,0.38,3.26,1.15c0.83,0.77,1.25,1.79,1.25,3.07c0,1.15-0.42,2.11-1.25,2.88
		c-0.83,0.77-1.92,1.15-3.26,1.15H525.43z M546.74,105.16c-3.2,0-6.08-0.82-8.64-2.45c-2.56-1.63-4.58-3.86-6.05-6.67
		c-1.47-2.82-2.21-5.98-2.21-9.5V40.74c0-1.41,0.45-2.56,1.34-3.46c0.9-0.9,2.05-1.34,3.46-1.34c1.41,0,2.56,0.45,3.46,1.34
		c0.9,0.9,1.34,2.05,1.34,3.46v45.79c0,2.56,0.7,4.7,2.11,6.43c1.41,1.73,3.14,2.59,5.18,2.59h3.26c1.15,0,2.13,0.45,2.93,1.34
		c0.8,0.9,1.2,2.05,1.2,3.46s-0.53,2.56-1.58,3.46c-1.06,0.9-2.42,1.34-4.08,1.34H546.74z"/>
	<path class="st1" d="M589.94,105.54c-5.18,0-9.76-1.14-13.73-3.41c-3.97-2.27-7.09-5.41-9.36-9.41c-2.27-4-3.41-8.59-3.41-13.78
		c0-5.25,1.14-9.87,3.41-13.87c2.27-4,5.39-7.13,9.36-9.41c3.97-2.27,8.54-3.41,13.73-3.41c5.12,0,9.66,1.14,13.63,3.41
		c3.97,2.27,7.09,5.41,9.36,9.41c2.27,4,3.41,8.63,3.41,13.87c0,5.18-1.12,9.78-3.36,13.78c-2.24,4-5.34,7.14-9.31,9.41
		C599.7,104.41,595.13,105.54,589.94,105.54z M589.94,96.9c3.33,0,6.27-0.77,8.83-2.3c2.56-1.54,4.56-3.65,6-6.34
		c1.44-2.69,2.16-5.79,2.16-9.31s-0.72-6.64-2.16-9.36c-1.44-2.72-3.44-4.85-6-6.38c-2.56-1.54-5.5-2.3-8.83-2.3
		c-3.33,0-6.27,0.77-8.83,2.3c-2.56,1.54-4.58,3.66-6.05,6.38c-1.47,2.72-2.21,5.84-2.21,9.36s0.73,6.62,2.21,9.31
		c1.47,2.69,3.49,4.8,6.05,6.34C583.67,96.14,586.61,96.9,589.94,96.9z"/>
	<path class="st1" d="M635.83,127.62c-1.41,0-2.58-0.46-3.5-1.39c-0.93-0.93-1.39-2.1-1.39-3.5V78.95c0.06-5.06,1.25-9.6,3.55-13.63
		c2.3-4.03,5.44-7.21,9.41-9.55c3.97-2.33,8.45-3.5,13.44-3.5c5.05,0,9.57,1.17,13.54,3.5c3.97,2.34,7.12,5.52,9.46,9.55
		c2.33,4.03,3.5,8.58,3.5,13.63c0,5.06-1.07,9.58-3.22,13.58c-2.15,4-5.07,7.17-8.78,9.5c-3.71,2.34-7.91,3.5-12.58,3.5
		c-3.78,0-7.25-0.78-10.42-2.35s-5.87-3.7-8.11-6.38v25.92c0,1.41-0.45,2.58-1.34,3.5C638.48,127.16,637.3,127.62,635.83,127.62z
		 M657.33,96.9c3.26,0,6.18-0.78,8.74-2.35c2.56-1.57,4.59-3.71,6.1-6.43c1.5-2.72,2.26-5.78,2.26-9.17c0-3.46-0.75-6.54-2.26-9.26
		c-1.5-2.72-3.54-4.86-6.1-6.43c-2.56-1.57-5.47-2.35-8.74-2.35c-3.2,0-6.1,0.79-8.69,2.35c-2.59,1.57-4.62,3.71-6.1,6.43
		c-1.47,2.72-2.21,5.81-2.21,9.26c0,3.39,0.74,6.45,2.21,9.17c1.47,2.72,3.5,4.86,6.1,6.43C651.24,96.12,654.13,96.9,657.33,96.9z"
		/>
</g>
<g>
	<path class="st0" d="M274.28,204.79c-5.18,0-10.03-0.97-14.54-2.93c-4.51-1.95-8.45-4.67-11.81-8.16
		c-3.36-3.49-5.98-7.57-7.87-12.24c-1.89-4.67-2.83-9.73-2.83-15.17c0-5.38,0.94-10.38,2.83-15.02c1.89-4.64,4.51-8.7,7.87-12.19
		c3.36-3.49,7.28-6.22,11.76-8.21c4.48-1.98,9.34-2.98,14.59-2.98c4.93,0,9.17,0.64,12.72,1.92c3.55,1.28,7.12,3.39,10.7,6.34
		c0.51,0.38,0.91,0.78,1.2,1.2c0.29,0.42,0.48,0.83,0.58,1.25c0.1,0.42,0.14,0.91,0.14,1.49c0,1.22-0.43,2.22-1.3,3.02
		c-0.86,0.8-1.91,1.25-3.12,1.34c-1.22,0.1-2.4-0.3-3.55-1.2c-2.37-2.05-4.82-3.61-7.34-4.7c-2.53-1.09-5.87-1.63-10.03-1.63
		c-3.78,0-7.33,0.77-10.66,2.3c-3.33,1.54-6.26,3.65-8.78,6.34c-2.53,2.69-4.5,5.81-5.9,9.36c-1.41,3.55-2.11,7.34-2.11,11.38
		c0,4.1,0.7,7.92,2.11,11.47c1.41,3.55,3.38,6.67,5.9,9.36c2.53,2.69,5.46,4.79,8.78,6.29c3.33,1.5,6.88,2.26,10.66,2.26
		c3.26,0,6.35-0.56,9.26-1.68c2.91-1.12,5.71-2.67,8.4-4.66c1.15-0.83,2.29-1.2,3.41-1.1c1.12,0.1,2.06,0.54,2.83,1.34
		c0.77,0.8,1.15,1.91,1.15,3.31c0,0.64-0.13,1.26-0.38,1.87c-0.26,0.61-0.64,1.17-1.15,1.68c-3.46,2.75-7.15,4.83-11.09,6.24
		C282.78,204.08,278.63,204.79,274.28,204.79z"/>
</g>
<g>
	<path class="st1" d="M320.38,203.83c-1.54,0-2.72-0.4-3.55-1.2c-0.83-0.8-1.25-2-1.25-3.6v-42.91c0-1.54,0.42-2.72,1.25-3.55
		c0.83-0.83,2.02-1.25,3.55-1.25c1.6,0,2.8,0.4,3.6,1.2c0.8,0.8,1.2,2,1.2,3.6v42.91c0,1.54-0.4,2.72-1.2,3.55
		C323.18,203.41,321.98,203.83,320.38,203.83z M320.28,170.99c0-3.84,0.94-7.28,2.83-10.32c1.89-3.04,4.43-5.46,7.63-7.25
		c3.2-1.79,6.72-2.69,10.56-2.69s6.7,0.62,8.59,1.87c1.89,1.25,2.61,2.74,2.16,4.46c-0.19,0.9-0.56,1.58-1.1,2.06
		c-0.54,0.48-1.17,0.78-1.87,0.91c-0.7,0.13-1.47,0.1-2.3-0.1c-4.1-0.83-7.78-0.9-11.04-0.19c-3.26,0.71-5.84,2.02-7.73,3.94
		c-1.89,1.92-2.83,4.35-2.83,7.3H320.28z"/>
	<path class="st1" d="M385.27,204.21c-5.31,0-10.03-1.13-14.16-3.41c-4.13-2.27-7.36-5.41-9.7-9.41c-2.34-4-3.5-8.59-3.5-13.78
		c0-5.25,1.1-9.87,3.31-13.87c2.21-4,5.26-7.13,9.17-9.41c3.9-2.27,8.38-3.41,13.44-3.41c4.99,0,9.28,1.1,12.86,3.31
		c3.58,2.21,6.32,5.25,8.21,9.12c1.89,3.87,2.83,8.34,2.83,13.39c0,1.22-0.42,2.22-1.25,3.02c-0.83,0.8-1.89,1.2-3.17,1.2h-38.69
		v-7.68h38.4l-3.94,2.69c-0.06-3.2-0.71-6.06-1.92-8.59c-1.22-2.53-2.94-4.53-5.18-6c-2.24-1.47-4.96-2.21-8.16-2.21
		c-3.65,0-6.77,0.8-9.36,2.4c-2.59,1.6-4.56,3.79-5.9,6.58c-1.34,2.78-2.02,5.94-2.02,9.46c0,3.52,0.8,6.66,2.4,9.41
		c1.6,2.75,3.81,4.93,6.62,6.53c2.82,1.6,6.05,2.4,9.7,2.4c1.98,0,4.02-0.37,6.1-1.1c2.08-0.74,3.76-1.58,5.04-2.54
		c0.96-0.7,2-1.07,3.12-1.1c1.12-0.03,2.09,0.3,2.93,1.01c1.09,0.96,1.66,2.02,1.73,3.17c0.06,1.15-0.45,2.15-1.54,2.98
		c-2.18,1.73-4.88,3.14-8.11,4.22C391.31,203.67,388.22,204.21,385.27,204.21z"/>
	<path class="st1" d="M442.1,204.21c-4.67,0-8.87-1.17-12.58-3.5c-3.71-2.33-6.64-5.5-8.78-9.5c-2.14-4-3.22-8.53-3.22-13.58
		c0-5.05,1.17-9.6,3.5-13.63c2.33-4.03,5.5-7.21,9.5-9.55c4-2.34,8.5-3.5,13.49-3.5s9.47,1.17,13.44,3.5
		c3.97,2.34,7.12,5.52,9.46,9.55c2.34,4.03,3.5,8.58,3.5,13.63h-3.74c0,5.06-1.07,9.58-3.22,13.58c-2.14,4-5.07,7.17-8.78,9.5
		C450.97,203.04,446.78,204.21,442.1,204.21z M444.02,195.57c3.26,0,6.17-0.78,8.74-2.35c2.56-1.57,4.58-3.71,6.05-6.43
		c1.47-2.72,2.21-5.77,2.21-9.17c0-3.46-0.74-6.54-2.21-9.26c-1.47-2.72-3.49-4.86-6.05-6.43c-2.56-1.57-5.47-2.35-8.74-2.35
		c-3.2,0-6.1,0.78-8.69,2.35s-4.64,3.71-6.14,6.43c-1.5,2.72-2.26,5.81-2.26,9.26c0,3.39,0.75,6.45,2.26,9.17
		c1.5,2.72,3.55,4.87,6.14,6.43C437.93,194.79,440.82,195.57,444.02,195.57z M465.53,203.92c-1.41,0-2.58-0.46-3.5-1.39
		c-0.93-0.93-1.39-2.1-1.39-3.5v-14.69l1.82-10.18l7.97,3.46v21.41c0,1.41-0.46,2.58-1.39,3.5
		C468.1,203.46,466.94,203.92,465.53,203.92z"/>
	<path class="st1" d="M482.42,161.49c-1.34,0-2.43-0.38-3.26-1.15c-0.83-0.77-1.25-1.73-1.25-2.88c0-1.28,0.42-2.3,1.25-3.07
		c0.83-0.77,1.92-1.15,3.26-1.15h22.18c1.34,0,2.43,0.38,3.26,1.15c0.83,0.77,1.25,1.79,1.25,3.07c0,1.15-0.42,2.11-1.25,2.88
		c-0.83,0.77-1.92,1.15-3.26,1.15H482.42z M503.74,203.83c-3.2,0-6.08-0.82-8.64-2.45c-2.56-1.63-4.58-3.85-6.05-6.67
		c-1.47-2.82-2.21-5.98-2.21-9.5v-45.79c0-1.41,0.45-2.56,1.34-3.46c0.9-0.9,2.05-1.34,3.46-1.34c1.41,0,2.56,0.45,3.46,1.34
		c0.9,0.9,1.34,2.05,1.34,3.46v45.79c0,2.56,0.7,4.7,2.11,6.43c1.41,1.73,3.14,2.59,5.18,2.59H507c1.15,0,2.13,0.45,2.93,1.34
		c0.8,0.9,1.2,2.05,1.2,3.46c0,1.41-0.53,2.56-1.58,3.46c-1.06,0.9-2.42,1.34-4.08,1.34H503.74z"/>
	<path class="st1" d="M546.84,204.21c-5.18,0-9.76-1.13-13.73-3.41c-3.97-2.27-7.09-5.41-9.36-9.41c-2.27-4-3.41-8.59-3.41-13.78
		c0-5.25,1.14-9.87,3.41-13.87c2.27-4,5.39-7.13,9.36-9.41c3.97-2.27,8.54-3.41,13.73-3.41c5.12,0,9.66,1.14,13.63,3.41
		c3.97,2.27,7.09,5.41,9.36,9.41c2.27,4,3.41,8.63,3.41,13.87c0,5.18-1.12,9.78-3.36,13.78c-2.24,4-5.34,7.14-9.31,9.41
		C556.6,203.07,552.02,204.21,546.84,204.21z M546.84,195.57c3.33,0,6.27-0.77,8.83-2.3c2.56-1.54,4.56-3.65,6-6.34
		c1.44-2.69,2.16-5.79,2.16-9.31c0-3.52-0.72-6.64-2.16-9.36c-1.44-2.72-3.44-4.85-6-6.38c-2.56-1.54-5.5-2.3-8.83-2.3
		c-3.33,0-6.27,0.77-8.83,2.3c-2.56,1.54-4.58,3.67-6.05,6.38c-1.47,2.72-2.21,5.84-2.21,9.36c0,3.52,0.73,6.62,2.21,9.31
		c1.47,2.69,3.49,4.8,6.05,6.34C540.56,194.8,543.51,195.57,546.84,195.57z"/>
	<path class="st1" d="M592.63,203.83c-1.54,0-2.72-0.4-3.55-1.2c-0.83-0.8-1.25-2-1.25-3.6v-42.91c0-1.54,0.42-2.72,1.25-3.55
		c0.83-0.83,2.02-1.25,3.55-1.25c1.6,0,2.8,0.4,3.6,1.2c0.8,0.8,1.2,2,1.2,3.6v42.91c0,1.54-0.4,2.72-1.2,3.55
		C595.43,203.41,594.23,203.83,592.63,203.83z M592.53,170.99c0-3.84,0.94-7.28,2.83-10.32c1.89-3.04,4.43-5.46,7.63-7.25
		c3.2-1.79,6.72-2.69,10.56-2.69s6.7,0.62,8.59,1.87c1.89,1.25,2.61,2.74,2.16,4.46c-0.19,0.9-0.56,1.58-1.1,2.06
		c-0.54,0.48-1.17,0.78-1.87,0.91c-0.7,0.13-1.47,0.1-2.3-0.1c-4.1-0.83-7.78-0.9-11.04-0.19c-3.26,0.71-5.84,2.02-7.73,3.94
		c-1.89,1.92-2.83,4.35-2.83,7.3H592.53z"/>
</g>
<path class="st0" d="M186.09,153.7l-52.13,52.13c-5.58,5.58-14.61,5.58-20.19,0L61.64,153.7c-5.57-5.57-5.57-14.61,0-20.18
	l4.95-4.95l38.88,38.87c4.27,4.27,9.93,6.61,15.96,6.61c6.03,0,11.69-2.34,15.96-6.61l41.31-41.31l7.39,7.39
	C191.67,139.09,191.67,148.13,186.09,153.7z"/>
<path class="st1" d="M183.45,110.07l-10.4,10.4l-41.32,41.32c-2.85,2.84-6.57,4.26-10.3,4.26c-3.73,0-7.46-1.42-10.3-4.26
	l-38.88-38.88l-12.84-12.84c-5.69-5.69-5.69-14.91,0-20.6l51.72-51.72c2.84-2.84,6.57-4.26,10.3-4.26c3.73,0,7.45,1.42,10.3,4.26
	l51.72,51.72C189.14,95.16,189.14,104.38,183.45,110.07z"/>
</svg>
