<svg id="Capa_1" data-name="Capa 1" xmlns="http://www.w3.org/2000/svg" viewBox="0 0 1444.73 664.05"><defs><style>.cls-1{fill:#77cbe8;}.cls-2{fill:#fff;}.cls-3{fill:#009fdc;}</style></defs><path class="cls-1" d="M410.12,322.89,392,354.5,319.86,480.1c-5,8.64-13.39,15.52-23,19.67s-20.4,5.57-30.09,3.26L134.2,471.4,90.43,461c-19.4-4.63-27.08-22.39-17.14-39.69l90.26-157.21c5-8.64,13.39-15.52,23-19.68s20.39-5.55,30.1-3.25L393,283.2C412.38,287.83,420.05,305.59,410.12,322.89Z"/><path class="cls-2" d="M392,281l-18.15,31.61-72.12,125.6c-5,8.65-13.38,15.52-23,19.67s-20.41,5.57-30.09,3.26L116.09,429.46,72.31,419c-19.4-4.63-27.07-22.39-17.14-39.69l90.27-157.21c5-8.64,13.39-15.52,23-19.68s20.39-5.55,30.09-3.25l176.34,42.07C394.27,245.89,401.94,263.65,392,281Z"/><path class="cls-3" d="M374.36,240.32l-18.14,31.6L284.14,397.45c-5,8.64-13.38,15.51-23,19.66s-20.39,5.57-30.07,3.26L98.59,388.76,54.84,378.32c-19.39-4.63-27.06-22.38-17.13-39.67l90.21-157.13c5-8.63,13.39-15.51,23-19.66s20.38-5.55,30.08-3.26l176.24,42.05C376.62,205.28,384.29,223,374.36,240.32Z"/><path class="cls-1" d="M569.59,176a8.92,8.92,0,1,1,0-17.83H669A8.92,8.92,0,1,1,669,176Zm49.79,127.26a9.51,9.51,0,0,1-9.66-9.66V158.14H629V293.57a9.5,9.5,0,0,1-9.66,9.66Z"/><path class="cls-3" d="M731,304a44.72,44.72,0,0,1-24.34-6.78,48.14,48.14,0,0,1-17-18.39,54.8,54.8,0,0,1-6.22-26.29,51.6,51.6,0,0,1,6.78-26.39,50.16,50.16,0,0,1,18.39-18.48,51.22,51.22,0,0,1,70.41,18.48,51.7,51.7,0,0,1,6.78,26.39H778.6a54.8,54.8,0,0,1-6.23,26.29,48.14,48.14,0,0,1-17,18.39A44.71,44.71,0,0,1,731,304Zm3.71-16.72a31.77,31.77,0,0,0,16.91-4.55,32.46,32.46,0,0,0,11.7-12.45,36.65,36.65,0,0,0,4.28-17.74,37.07,37.07,0,0,0-4.28-17.93,32.39,32.39,0,0,0-11.7-12.45,33.51,33.51,0,0,0-33.72,0,32.79,32.79,0,0,0-11.89,12.45,36.45,36.45,0,0,0-4.37,17.93,36,36,0,0,0,4.37,17.74,32.87,32.87,0,0,0,11.89,12.45A31.87,31.87,0,0,0,734.75,287.26Zm41.62,16.16a9.21,9.21,0,0,1-9.48-9.47V265.52l3.53-19.69,15.42,6.69V294a9.2,9.2,0,0,1-9.47,9.47Z"/><path class="cls-3" d="M865.17,304a50.31,50.31,0,0,1-26-6.78A49.71,49.71,0,0,1,821,278.71a53.54,53.54,0,0,1-6.87-26.38V167.61a9.15,9.15,0,0,1,2.69-6.87A9.44,9.44,0,0,1,833,167.61v50.16a47.85,47.85,0,0,1,15.7-12.35,47,47,0,0,1,44.49,2.23,48.22,48.22,0,0,1,17,18.39,54.77,54.77,0,0,1,6.23,26.29,51.74,51.74,0,0,1-6.78,26.38A50,50,0,0,1,865.17,304Zm0-16.72a31.77,31.77,0,0,0,16.91-4.55,33,33,0,0,0,11.79-12.54,36.6,36.6,0,0,0,4.37-17.84,35.88,35.88,0,0,0-4.37-17.83,33.26,33.26,0,0,0-11.79-12.36,33.51,33.51,0,0,0-33.72,0,32.3,32.3,0,0,0-11.8,12.36,36.48,36.48,0,0,0-4.27,17.83,37.21,37.21,0,0,0,4.27,17.84,31.8,31.8,0,0,0,28.61,17.09Z"/><path class="cls-3" d="M968.83,303.23a24.51,24.51,0,0,1-14.49-4.45,29.62,29.62,0,0,1-9.84-12.17A42.13,42.13,0,0,1,941,268.86V167.43a9.29,9.29,0,1,1,18.57,0V268.86a22.18,22.18,0,0,0,2.61,11.34q2.6,4.46,6.68,4.46h4.65a7.75,7.75,0,0,1,6,2.6,9.69,9.69,0,0,1,2.32,6.69,8,8,0,0,1-3.53,6.68,14.94,14.94,0,0,1-9.11,2.6Z"/><path class="cls-3" d="M1048.16,304q-15.42,0-27.4-6.6a48.17,48.17,0,0,1-18.77-18.2q-6.78-11.61-6.78-26.66,0-15.24,6.41-26.85a46.91,46.91,0,0,1,17.74-18.21,50.85,50.85,0,0,1,26-6.59q14.51,0,24.9,6.41a41.78,41.78,0,0,1,15.88,17.65q5.49,11.23,5.48,25.91a7.78,7.78,0,0,1-2.41,5.86,8.49,8.49,0,0,1-6.13,2.32h-74.87V244.16h74.31l-7.62,5.2a39.76,39.76,0,0,0-3.71-16.63,28.31,28.31,0,0,0-10-11.61q-6.51-4.27-15.8-4.27-10.59,0-18.11,4.64a29.9,29.9,0,0,0-11.42,12.73,41.46,41.46,0,0,0-3.91,18.3,35.49,35.49,0,0,0,4.65,18.2,33.83,33.83,0,0,0,12.82,12.64,37.36,37.36,0,0,0,18.76,4.64,35.14,35.14,0,0,0,11.8-2.14,36.56,36.56,0,0,0,9.75-4.92,10.53,10.53,0,0,1,6-2.13,8.18,8.18,0,0,1,5.67,1.95,8.82,8.82,0,0,1,3.34,6.13,6.61,6.61,0,0,1-3,5.76,51.39,51.39,0,0,1-15.7,8.17A56.07,56.07,0,0,1,1048.16,304Z"/><path class="cls-3" d="M1111.51,221.3a9,9,0,0,1-6.32-2.22,7.28,7.28,0,0,1-2.41-5.58,7.69,7.69,0,0,1,2.41-5.94,8.94,8.94,0,0,1,6.32-2.23h42.92a8.91,8.91,0,0,1,6.31,2.23,7.7,7.7,0,0,1,2.42,5.94,7.29,7.29,0,0,1-2.42,5.58,9,9,0,0,1-6.31,2.22Zm41.25,81.93A30.45,30.45,0,0,1,1136,298.5a33.28,33.28,0,0,1-11.7-12.91,39.09,39.09,0,0,1-4.27-18.4V178.57a9.29,9.29,0,1,1,18.58,0v88.62a19.07,19.07,0,0,0,4.08,12.45,12.49,12.49,0,0,0,10,5h6.31a7.34,7.34,0,0,1,5.67,2.6,9.64,9.64,0,0,1,2.32,6.69,8.34,8.34,0,0,1-3.07,6.68,11.73,11.73,0,0,1-7.89,2.6Z"/><path class="cls-3" d="M1236.35,304q-15,0-26.56-6.6a47.78,47.78,0,0,1-18.12-18.2q-6.59-11.61-6.59-26.66,0-15.24,6.59-26.85a47.87,47.87,0,0,1,18.12-18.21q11.52-6.59,26.56-6.59a52.24,52.24,0,0,1,26.39,6.59,47.92,47.92,0,0,1,18.11,18.21q6.59,11.61,6.59,26.85,0,15-6.5,26.66a47,47,0,0,1-18,18.2Q1251.4,304,1236.35,304Zm0-16.72a32.64,32.64,0,0,0,17.1-4.46,31.22,31.22,0,0,0,11.61-12.26,37.68,37.68,0,0,0,4.18-18,38.26,38.26,0,0,0-4.18-18.12,31.07,31.07,0,0,0-11.61-12.35,35,35,0,0,0-34.19,0,31.63,31.63,0,0,0-11.7,12.35,37.49,37.49,0,0,0-4.27,18.12,36.92,36.92,0,0,0,4.27,18,31.8,31.8,0,0,0,11.7,12.26A32.58,32.58,0,0,0,1236.35,287.26Z"/><path class="cls-3" d="M1325.16,346.71a9.23,9.23,0,0,1-9.48-9.48V252.52a53.61,53.61,0,0,1,6.88-26.39,49.58,49.58,0,0,1,18.2-18.48,51.29,51.29,0,0,1,70.51,18.48,51.7,51.7,0,0,1,6.78,26.39,54.8,54.8,0,0,1-6.23,26.29,48.2,48.2,0,0,1-17,18.39,47,47,0,0,1-44.5,2.23,48,48,0,0,1-15.7-12.36v50.16A9.36,9.36,0,0,1,1332,344,9.11,9.11,0,0,1,1325.16,346.71Zm41.61-59.45a31.77,31.77,0,0,0,16.91-4.55,33.25,33.25,0,0,0,11.8-12.45,36.15,36.15,0,0,0,4.36-17.74,36.56,36.56,0,0,0-4.36-17.93,33.17,33.17,0,0,0-11.8-12.45,33.51,33.51,0,0,0-33.72,0,32.13,32.13,0,0,0-11.8,12.45,37.06,37.06,0,0,0-4.27,17.93,36.65,36.65,0,0,0,4.27,17.74,31.95,31.95,0,0,0,28.61,17Z"/><path class="cls-1" d="M634,496a70.06,70.06,0,0,1-51-21.46,73.25,73.25,0,0,1-15.24-23.69,77.65,77.65,0,0,1-5.48-29.35,76.48,76.48,0,0,1,5.48-29.08A73.45,73.45,0,0,1,583,368.87,71.36,71.36,0,0,1,605.74,353,69,69,0,0,1,634,347.23q14.31,0,24.62,3.71a71.17,71.17,0,0,1,20.72,12.26,10.38,10.38,0,0,1,2.32,2.32,7,7,0,0,1,1.11,2.42,12.77,12.77,0,0,1,.28,2.88,7.61,7.61,0,0,1-2.51,5.85,9.66,9.66,0,0,1-12.91.28,55,55,0,0,0-14.21-9.1Q646,364.69,634,364.69a48.64,48.64,0,0,0-20.62,4.46,54.44,54.44,0,0,0-17,12.26,56.55,56.55,0,0,0-11.42,18.11,61.81,61.81,0,0,0,0,44.22,56.55,56.55,0,0,0,11.42,18.11,53.07,53.07,0,0,0,17,12.17,50.95,50.95,0,0,0,38.55,1.12,69.1,69.1,0,0,0,16.26-9,9.73,9.73,0,0,1,6.59-2.14,8.33,8.33,0,0,1,5.48,2.6,8.87,8.87,0,0,1,2.23,6.41,9.3,9.3,0,0,1-.74,3.62,10.21,10.21,0,0,1-2.23,3.25A74.53,74.53,0,0,1,658,492,71,71,0,0,1,634,496Z"/><path class="cls-3" d="M723.18,494.18q-4.45,0-6.87-2.32t-2.42-7V401.84a9.3,9.3,0,0,1,2.42-6.87q2.41-2.42,6.87-2.41,4.65,0,7,2.32t2.32,7v83.05c0,3-.77,5.27-2.32,6.87S726.28,494.18,723.18,494.18ZM723,430.64a37,37,0,0,1,5.48-20,40.14,40.14,0,0,1,14.77-14,41.17,41.17,0,0,1,20.43-5.2q11.15,0,16.63,3.62t4.18,8.64a7.14,7.14,0,0,1-2.14,4,7.28,7.28,0,0,1-3.62,1.76,11,11,0,0,1-4.46-.18q-11.89-2.41-21.36-.37t-15,7.61a19.34,19.34,0,0,0-5.48,14.12Z"/><path class="cls-3" d="M848.77,494.92q-15.42,0-27.4-6.59a48.26,48.26,0,0,1-18.77-18.21q-6.78-11.61-6.78-26.66,0-15.22,6.41-26.85A47,47,0,0,1,820,398.41a50.75,50.75,0,0,1,26-6.6q14.49,0,24.9,6.41a41.78,41.78,0,0,1,15.88,17.65q5.47,11.25,5.48,25.92a7.78,7.78,0,0,1-2.41,5.85A8.49,8.49,0,0,1,883.7,450H808.83V435.1h74.31l-7.62,5.2a39.8,39.8,0,0,0-3.71-16.63A27.07,27.07,0,0,0,846,407.79q-10.59,0-18.11,4.64a30,30,0,0,0-11.43,12.73,41.59,41.59,0,0,0-3.9,18.3,35.55,35.55,0,0,0,4.65,18.21A33.81,33.81,0,0,0,830,474.3a37.23,37.23,0,0,0,18.76,4.64,35.37,35.37,0,0,0,11.8-2.13,36.85,36.85,0,0,0,9.75-4.92,10.48,10.48,0,0,1,6-2.14A8.18,8.18,0,0,1,882,471.7a8.84,8.84,0,0,1,3.34,6.13,6.61,6.61,0,0,1-3,5.76,51.39,51.39,0,0,1-15.7,8.17A56.07,56.07,0,0,1,848.77,494.92Z"/><path class="cls-3" d="M958.75,494.92a44.74,44.74,0,0,1-24.34-6.78,48.22,48.22,0,0,1-17-18.39,54.74,54.74,0,0,1-6.22-26.29A51.66,51.66,0,0,1,918,417.08a50.26,50.26,0,0,1,18.39-18.49,51.22,51.22,0,0,1,70.42,18.49,51.66,51.66,0,0,1,6.78,26.38h-7.25a54.74,54.74,0,0,1-6.22,26.29,48.22,48.22,0,0,1-17,18.39A44.77,44.77,0,0,1,958.75,494.92Zm3.72-16.72a31.65,31.65,0,0,0,16.9-4.55,32.28,32.28,0,0,0,11.71-12.45,36.73,36.73,0,0,0,4.27-17.74,37.18,37.18,0,0,0-4.27-17.93,32.32,32.32,0,0,0-11.71-12.44,33.45,33.45,0,0,0-33.72,0,32.84,32.84,0,0,0-11.89,12.44,36.45,36.45,0,0,0-4.36,17.93,36,36,0,0,0,4.36,17.74,32.8,32.8,0,0,0,11.89,12.45A31.81,31.81,0,0,0,962.47,478.2Zm41.61,16.17a9.21,9.21,0,0,1-9.47-9.48V456.47l3.53-19.7,15.42,6.69v41.43a9.23,9.23,0,0,1-9.48,9.48Z"/><path class="cls-3" d="M1036.78,412.25a8.94,8.94,0,0,1-6.32-2.23,7.26,7.26,0,0,1-2.41-5.57,7.71,7.71,0,0,1,2.41-5.95,8.94,8.94,0,0,1,6.32-2.23h42.91a8.94,8.94,0,0,1,6.32,2.23,7.72,7.72,0,0,1,2.42,5.95A7.27,7.27,0,0,1,1086,410a8.94,8.94,0,0,1-6.32,2.23ZM1078,494.18a30.43,30.43,0,0,1-16.72-4.74,33.2,33.2,0,0,1-11.7-12.91,39.08,39.08,0,0,1-4.28-18.39V369.52a9.29,9.29,0,1,1,18.58,0v88.62a19.06,19.06,0,0,0,4.09,12.45,12.49,12.49,0,0,0,10,5h6.32a7.31,7.31,0,0,1,5.66,2.6,9.68,9.68,0,0,1,2.33,6.69,8.35,8.35,0,0,1-3.07,6.69,11.73,11.73,0,0,1-7.89,2.6Z"/><path class="cls-3" d="M1161.44,494.92q-15.06,0-26.57-6.59a47.78,47.78,0,0,1-18.11-18.21q-6.6-11.61-6.6-26.66,0-15.22,6.6-26.85a47.82,47.82,0,0,1,18.11-18.2q11.52-6.6,26.57-6.6a52.13,52.13,0,0,1,26.38,6.6,47.89,47.89,0,0,1,18.11,18.2q6.6,11.63,6.6,26.85,0,15-6.51,26.66a47.13,47.13,0,0,1-18,18.21Q1176.48,494.93,1161.44,494.92Zm0-16.72a32.54,32.54,0,0,0,17.09-4.46,31.22,31.22,0,0,0,11.61-12.26,37.54,37.54,0,0,0,4.18-18,38.07,38.07,0,0,0-4.18-18.11A31,31,0,0,0,1178.53,413a35,35,0,0,0-34.19,0,31.66,31.66,0,0,0-11.7,12.36,37.42,37.42,0,0,0-4.27,18.11,36.9,36.9,0,0,0,4.27,18,31.87,31.87,0,0,0,11.7,12.26A32.52,32.52,0,0,0,1161.44,478.2Z"/><path class="cls-3" d="M1250.05,494.18q-4.46,0-6.87-2.32t-2.42-7V401.84a9.3,9.3,0,0,1,2.42-6.87q2.41-2.42,6.87-2.41,4.65,0,7,2.32t2.32,7v83.05c0,3-.77,5.27-2.32,6.87S1253.15,494.18,1250.05,494.18Zm-.18-63.54a37,37,0,0,1,5.48-20,40.14,40.14,0,0,1,14.77-14,41.17,41.17,0,0,1,20.43-5.2q11.15,0,16.63,3.62t4.18,8.64a7.14,7.14,0,0,1-2.14,4,7.28,7.28,0,0,1-3.62,1.76,11,11,0,0,1-4.46-.18q-11.9-2.41-21.36-.37t-15,7.61a19.34,19.34,0,0,0-5.48,14.12Z"/></svg>