<?xml version="1.0" encoding="utf-8"?>
<!-- Generator: Adobe Illustrator 24.3.0, SVG Export Plug-In . SVG Version: 6.00 Build 0)  -->
<svg version="1.1" id="Capa_1" xmlns="http://www.w3.org/2000/svg" xmlns:xlink="http://www.w3.org/1999/xlink" x="0px" y="0px"
	 viewBox="0 0 2214.93 2872.89" style="enable-background:new 0 0 2214.93 2872.89;" xml:space="preserve">
<style type="text/css">
	.st0{fill:#FFFFFF;}
	.st1{fill:#E37826;}
	.st2{fill:#009FC7;}
	.st3{fill:#8E989B;}
</style>
<rect x="-43.82" y="-46.1" class="st0" width="2314.67" height="2983.67"/>
<g>
	<path class="st2" d="M1003.63,2488.58h-77.64c-57.15,0-103.64-46.49-103.64-103.64s46.49-103.64,103.64-103.64
		c30.26,0,58.93,13.18,78.65,36.15c8.89,10.35,8.26,25.81-1.42,35.41l-51.02,50.56c-10.2,10.11-26.66,10.03-36.77-0.17
		c-10.11-10.2-10.03-26.66,0.17-36.77l29.7-29.43c-6.07-2.45-12.61-3.74-19.31-3.74c-28.48,0-51.64,23.17-51.64,51.64
		s23.17,51.64,51.64,51.64h77.64c14.36,0,26,11.64,26,26S1017.99,2488.58,1003.63,2488.58z"/>
</g>
<g>
	<g>
		<path class="st2" d="M285.21,2543.22c-14.36,0-26-11.64-26-26v-129.45c0-57.15,46.49-103.64,103.64-103.64
			s103.64,46.49,103.64,103.64S420,2491.41,362.85,2491.41h-51.64v25.81C311.21,2531.58,299.57,2543.22,285.21,2543.22z
			 M311.21,2439.41h51.64c28.48,0,51.64-23.17,51.64-51.64s-23.17-51.64-51.64-51.64s-51.64,23.17-51.64,51.64V2439.41z"/>
	</g>
</g>
<g>
	<path class="st1" d="M531.5,2336.12h-26v-26c0-14.34,11.66-26,26-26s26,11.66,26,26C557.5,2324.46,545.83,2336.12,531.5,2336.12z"
		/>
</g>
<g>
	<path class="st2" d="M531.49,2491.41c-14.36,0-26-11.64-26-26v-83.24c0-14.36,11.64-26,26-26s26,11.64,26,26v83.24
		C557.49,2479.77,545.85,2491.41,531.49,2491.41z"/>
</g>
<g>
	<g>
		<path class="st2" d="M777.7,2491.41c-6.65,0-13.31-2.54-18.38-7.62L604.03,2328.5c-10.15-10.15-10.15-26.62,0-36.77
			c10.15-10.15,26.62-10.15,36.77,0l155.29,155.29c10.15,10.15,10.15,26.62,0,36.77C791.01,2488.87,784.35,2491.41,777.7,2491.41z"
			/>
	</g>
	<g>
		<path class="st2" d="M622.41,2491.41c-6.65,0-13.31-2.54-18.38-7.62c-10.15-10.15-10.15-26.62,0-36.77l155.29-155.29
			c10.15-10.15,26.62-10.15,36.77,0c10.15,10.15,10.15,26.62,0,36.77L640.8,2483.79C635.72,2488.87,629.07,2491.41,622.41,2491.41z"
			/>
	</g>
</g>
<g>
	<path class="st2" d="M1382.95,2491.55h-77.64c-57.15,0-103.64-46.49-103.64-103.64s46.49-103.64,103.64-103.64
		s103.64,46.49,103.64,103.64v77.64C1408.95,2479.91,1397.3,2491.55,1382.95,2491.55z M1305.3,2336.26
		c-28.48,0-51.64,23.17-51.64,51.64s23.17,51.64,51.64,51.64h51.64v-51.64C1356.95,2359.43,1333.78,2336.26,1305.3,2336.26z"/>
</g>
<g>
	<path class="st2" d="M1852.13,2491.42c-57.15,0-103.64-46.49-103.64-103.64s46.49-103.64,103.64-103.64s103.64,46.49,103.64,103.64
		S1909.28,2491.42,1852.13,2491.42z M1852.13,2336.14c-28.48,0-51.64,23.17-51.64,51.64s23.17,51.64,51.64,51.64
		s51.64-23.17,51.64-51.64S1880.6,2336.14,1852.13,2336.14z"/>
</g>
<g>
	<path class="st2" d="M1155.28,2491.8c-57.15,0-103.64-46.49-103.64-103.64v-129.22c0-14.36,11.64-26,26-26s26,11.64,26,26v129.22
		c0,28.48,23.17,51.64,51.64,51.64c14.36,0,26,11.64,26,26S1169.64,2491.8,1155.28,2491.8z"/>
</g>
<g>
	<g>
		<path class="st2" d="M1551.78,2335.94h-77.64c-14.36,0-26-11.64-26-26s11.64-26,26-26h77.64c14.36,0,26,11.64,26,26
			S1566.14,2335.94,1551.78,2335.94z"/>
	</g>
	<g>
		<path class="st2" d="M1551.78,2491.22c-57.15,0-103.64-46.49-103.64-103.64v-129.22c0-14.36,11.64-26,26-26s26,11.64,26,26v129.22
			c0,28.48,23.17,51.64,51.64,51.64c14.36,0,26,11.64,26,26S1566.14,2491.22,1551.78,2491.22z"/>
	</g>
</g>
<g>
	<g>
		<path class="st2" d="M1701.99,2336.02h-77.64c-14.36,0-26-11.64-26-26s11.64-26,26-26h77.64c14.36,0,26,11.64,26,26
			S1716.35,2336.02,1701.99,2336.02z"/>
	</g>
	<g>
		<path class="st2" d="M1701.99,2491.31c-57.15,0-103.64-46.49-103.64-103.64v-129.22c0-14.36,11.64-26,26-26s26,11.64,26,26v129.22
			c0,28.48,23.17,51.64,51.64,51.64c14.36,0,26,11.64,26,26S1716.35,2491.31,1701.99,2491.31z"/>
	</g>
</g>
<g>
	<g>
		<path class="st2" d="M1141.69,336.37c-365.91,0-663.57,297.66-663.57,663.57v552.62c0,183.13,148.98,332.15,332.15,332.15
			c144.24,0,267.31-92.46,313.07-221.16h18.36c365.91,0,663.57-297.7,663.57-663.61S1507.61,336.37,1141.69,336.37z
			 M1141.69,1441.58H920.45v110.99c0,60.74-49.43,110.18-110.18,110.18c-60.74,0-110.17-49.43-110.17-110.18V999.94
			c0-243.49,198.11-441.6,441.6-441.6c243.53,0,441.6,198.11,441.6,441.6C1583.29,1243.47,1385.22,1441.58,1141.69,1441.58z"/>
	</g>
</g>
<g>
	<path class="st0" d="M810.27,1663.53c-61.3,0-110.99-49.69-110.99-110.99V999.95c0-243.95,198.47-442.42,442.42-442.42
		c243.95,0,442.42,198.47,442.42,442.42s-198.47,442.42-442.42,442.42H921.25v110.18C921.25,1613.84,871.56,1663.53,810.27,1663.53z
		 M921.25,1220.4h220.45c121.56,0,220.45-98.89,220.45-220.45S1263.26,779.5,1141.7,779.5c-121.55,0-220.45,98.89-220.45,220.45
		V1220.4z"/>
</g>
<path class="st1" d="M1141.7,1220.4H921.25V999.95c0-121.55,98.89-220.45,220.45-220.45s220.45,98.89,220.45,220.45
	C1362.15,1121.5,1263.25,1220.4,1141.7,1220.4z"/>
</svg>
