<?xml version="1.0" encoding="utf-8"?>
<!-- Generator: Adobe Illustrator 24.3.0, SVG Export Plug-In . SVG Version: 6.00 Build 0)  -->
<svg version="1.1" id="Capa_1" xmlns="http://www.w3.org/2000/svg" xmlns:xlink="http://www.w3.org/1999/xlink" x="0px" y="0px"
	 viewBox="0 0 2577.55 724.52" style="enable-background:new 0 0 2577.55 724.52;" xml:space="preserve">
<style type="text/css">
	.st0{fill:#FFFFFF;}
	.st1{fill:#E37826;}
	.st2{fill:#009FC7;}
	.st3{fill:#8E989B;}
</style>
<rect x="-50.95" y="-45.26" class="st0" width="2673.78" height="824.89"/>
<g>
	<path class="st2" d="M1468.95,463.08h-77.64c-57.15,0-103.64-46.49-103.64-103.64s46.49-103.64,103.64-103.64
		c30.26,0,58.93,13.18,78.65,36.15c8.89,10.35,8.26,25.81-1.42,35.41l-51.02,50.56c-10.2,10.11-26.66,10.03-36.77-0.17
		c-10.11-10.2-10.03-26.66,0.17-36.77l29.7-29.43c-6.07-2.45-12.61-3.74-19.31-3.74c-28.48,0-51.64,23.17-51.64,51.64
		s23.17,51.64,51.64,51.64h77.64c14.36,0,26,11.64,26,26S1483.3,463.08,1468.95,463.08z"/>
</g>
<g>
	<g>
		<path class="st2" d="M750.52,517.72c-14.36,0-26-11.64-26-26V362.26c0-57.15,46.49-103.64,103.64-103.64
			s103.64,46.49,103.64,103.64S885.31,465.9,828.16,465.9h-51.64v25.81C776.52,506.07,764.88,517.72,750.52,517.72z M776.52,413.9
			h51.64c28.48,0,51.64-23.17,51.64-51.64s-23.17-51.64-51.64-51.64s-51.64,23.17-51.64,51.64V413.9z"/>
	</g>
</g>
<g>
	<path class="st1" d="M996.81,310.62h-26v-26c0-14.34,11.66-26,26-26c14.34,0,26,11.66,26,26
		C1022.81,298.96,1011.14,310.62,996.81,310.62z"/>
</g>
<g>
	<path class="st2" d="M996.81,465.9c-14.36,0-26-11.64-26-26v-83.24c0-14.36,11.64-26,26-26s26,11.64,26,26v83.24
		C1022.81,454.26,1011.17,465.9,996.81,465.9z"/>
</g>
<g>
	<g>
		<path class="st2" d="M1243.01,465.9c-6.65,0-13.31-2.54-18.38-7.62L1069.34,303c-10.15-10.15-10.15-26.62,0-36.77
			c10.15-10.15,26.62-10.15,36.77,0l155.29,155.29c10.15,10.15,10.15,26.62,0,36.77C1256.32,463.37,1249.66,465.9,1243.01,465.9z"/>
	</g>
	<g>
		<path class="st2" d="M1087.72,465.9c-6.65,0-13.31-2.54-18.38-7.62c-10.15-10.15-10.15-26.62,0-36.77l155.29-155.29
			c10.15-10.15,26.62-10.15,36.77,0c10.15,10.15,10.15,26.62,0,36.77l-155.29,155.29C1101.03,463.37,1094.38,465.9,1087.72,465.9z"
			/>
	</g>
</g>
<g>
	<path class="st2" d="M1848.26,466.04h-77.64c-57.15,0-103.64-46.49-103.64-103.64s46.49-103.64,103.64-103.64
		s103.64,46.49,103.64,103.64v77.64C1874.26,454.4,1862.62,466.04,1848.26,466.04z M1770.61,310.76
		c-28.48,0-51.64,23.17-51.64,51.64s23.17,51.64,51.64,51.64h51.64V362.4C1822.26,333.93,1799.09,310.76,1770.61,310.76z"/>
</g>
<g>
	<path class="st2" d="M2317.44,465.92c-57.15,0-103.64-46.49-103.64-103.64s46.49-103.64,103.64-103.64s103.64,46.49,103.64,103.64
		S2374.59,465.92,2317.44,465.92z M2317.44,310.64c-28.48,0-51.64,23.17-51.64,51.64s23.17,51.64,51.64,51.64
		s51.64-23.17,51.64-51.64S2345.91,310.64,2317.44,310.64z"/>
</g>
<g>
	<path class="st2" d="M1620.59,466.3c-57.15,0-103.64-46.49-103.64-103.64V233.44c0-14.36,11.64-26,26-26s26,11.64,26,26v129.22
		c0,28.48,23.17,51.64,51.64,51.64c14.36,0,26,11.64,26,26S1634.95,466.3,1620.59,466.3z"/>
</g>
<g>
	<g>
		<path class="st2" d="M2017.09,310.44h-77.64c-14.36,0-26-11.64-26-26s11.64-26,26-26h77.64c14.36,0,26,11.64,26,26
			S2031.45,310.44,2017.09,310.44z"/>
	</g>
	<g>
		<path class="st2" d="M2017.09,465.72c-57.15,0-103.64-46.49-103.64-103.64V232.86c0-14.36,11.64-26,26-26s26,11.64,26,26v129.22
			c0,28.48,23.17,51.64,51.64,51.64c14.36,0,26,11.64,26,26S2031.45,465.72,2017.09,465.72z"/>
	</g>
</g>
<g>
	<g>
		<path class="st2" d="M2167.31,310.52h-77.64c-14.36,0-26-11.64-26-26s11.64-26,26-26h77.64c14.36,0,26,11.64,26,26
			S2181.66,310.52,2167.31,310.52z"/>
	</g>
	<g>
		<path class="st2" d="M2167.31,465.81c-57.15,0-103.64-46.49-103.64-103.64V232.95c0-14.36,11.64-26,26-26s26,11.64,26,26v129.22
			c0,28.48,23.17,51.64,51.64,51.64c14.36,0,26,11.64,26,26S2181.66,465.81,2167.31,465.81z"/>
	</g>
</g>
<g>
	<g>
		<g>
			<path class="st2" d="M373.63,110.08c-119.74,0-217.16,97.42-217.16,217.16v180.84c0,59.94,48.76,108.7,108.7,108.7
				c47.21,0,87.48-30.25,102.46-72.38h6.01c119.74,0,217.16-97.42,217.16-217.16S493.37,110.08,373.63,110.08z M373.63,472.02
				h-72.14v36.06c0,20.06-16.26,36.32-36.32,36.32s-36.32-16.26-36.32-36.32V327.24c0-79.83,64.95-144.78,144.78-144.78
				s144.78,64.95,144.78,144.78C518.41,407.07,453.46,472.02,373.63,472.02z"/>
		</g>
	</g>
	<g>
		<path class="st1" d="M373.63,399.38h-72.14v-72.14c0-39.78,32.36-72.14,72.14-72.14s72.14,32.36,72.14,72.14
			C445.77,367.02,413.41,399.38,373.63,399.38z"/>
	</g>
	<g>
		<g>
			<path class="st0" d="M373.63,182.45c-79.83,0-144.78,64.95-144.78,144.78v180.84c0,20.06,16.26,36.32,36.32,36.32
				s36.32-16.26,36.32-36.32v-36.06h72.14c79.83,0,144.78-64.95,144.78-144.78C518.41,247.4,453.46,182.45,373.63,182.45z
				 M373.63,399.38h-72.14v-72.14c0-39.78,32.36-72.14,72.14-72.14s72.14,32.36,72.14,72.14
				C445.77,367.02,413.41,399.38,373.63,399.38z"/>
		</g>
	</g>
</g>
</svg>
