<?xml version="1.0" encoding="utf-8"?>
<!-- Generator: Adobe Illustrator 24.3.0, SVG Export Plug-In . SVG Version: 6.00 Build 0)  -->
<svg version="1.1" id="Capa_1" xmlns="http://www.w3.org/2000/svg" xmlns:xlink="http://www.w3.org/1999/xlink" x="0px" y="0px"
	 viewBox="0 0 2214.93 724.52" style="enable-background:new 0 0 2214.93 724.52;" xml:space="preserve">
<style type="text/css">
	.st0{fill:#FFFFFF;}
	.st1{fill:#E37826;}
	.st2{fill:#009FC7;}
	.st3{fill:#8E989B;}
</style>
<g>
	<rect x="-76.83" y="-88.49" class="st0" width="2361.91" height="900.12"/>
</g>
<g>
	<path class="st2" d="M1003.63,463.08h-77.64c-57.15,0-103.64-46.49-103.64-103.64s46.49-103.64,103.64-103.64
		c30.26,0,58.93,13.18,78.65,36.15c8.89,10.35,8.26,25.81-1.42,35.41l-51.02,50.56c-10.2,10.11-26.66,10.03-36.77-0.17
		c-10.11-10.2-10.03-26.66,0.17-36.77l29.7-29.43c-6.07-2.45-12.61-3.74-19.31-3.74c-28.48,0-51.64,23.17-51.64,51.64
		s23.17,51.64,51.64,51.64h77.64c14.36,0,26,11.64,26,26S1017.99,463.08,1003.63,463.08z"/>
</g>
<g>
	<g>
		<path class="st2" d="M285.21,517.72c-14.36,0-26-11.64-26-26V362.26c0-57.15,46.49-103.64,103.64-103.64
			S466.5,305.11,466.5,362.26S420,465.9,362.85,465.9h-51.64v25.81C311.21,506.07,299.57,517.72,285.21,517.72z M311.21,413.9h51.64
			c28.48,0,51.64-23.17,51.64-51.64s-23.17-51.64-51.64-51.64s-51.64,23.17-51.64,51.64V413.9z"/>
	</g>
</g>
<g>
	<path class="st1" d="M531.5,310.62h-26v-26c0-14.34,11.66-26,26-26s26,11.66,26,26C557.5,298.96,545.83,310.62,531.5,310.62z"/>
</g>
<g>
	<path class="st2" d="M531.49,465.9c-14.36,0-26-11.64-26-26v-83.24c0-14.36,11.64-26,26-26s26,11.64,26,26v83.24
		C557.49,454.26,545.85,465.9,531.49,465.9z"/>
</g>
<g>
	<g>
		<path class="st2" d="M777.7,465.9c-6.65,0-13.31-2.54-18.38-7.62L604.03,303c-10.15-10.15-10.15-26.62,0-36.77
			c10.15-10.15,26.62-10.15,36.77,0l155.29,155.29c10.15,10.15,10.15,26.62,0,36.77C791.01,463.37,784.35,465.9,777.7,465.9z"/>
	</g>
	<g>
		<path class="st2" d="M622.41,465.9c-6.65,0-13.31-2.54-18.38-7.62c-10.15-10.15-10.15-26.62,0-36.77l155.29-155.29
			c10.15-10.15,26.62-10.15,36.77,0c10.15,10.15,10.15,26.62,0,36.77L640.8,458.29C635.72,463.37,629.07,465.9,622.41,465.9z"/>
	</g>
</g>
<g>
	<path class="st2" d="M1382.95,466.04h-77.64c-57.15,0-103.64-46.49-103.64-103.64s46.49-103.64,103.64-103.64
		s103.64,46.49,103.64,103.64v77.64C1408.95,454.4,1397.3,466.04,1382.95,466.04z M1305.3,310.76c-28.48,0-51.64,23.17-51.64,51.64
		s23.17,51.64,51.64,51.64h51.64V362.4C1356.95,333.93,1333.78,310.76,1305.3,310.76z"/>
</g>
<g>
	<path class="st2" d="M1852.13,465.92c-57.15,0-103.64-46.49-103.64-103.64s46.49-103.64,103.64-103.64s103.64,46.49,103.64,103.64
		S1909.28,465.92,1852.13,465.92z M1852.13,310.64c-28.48,0-51.64,23.17-51.64,51.64s23.17,51.64,51.64,51.64
		s51.64-23.17,51.64-51.64S1880.6,310.64,1852.13,310.64z"/>
</g>
<g>
	<path class="st2" d="M1155.28,466.3c-57.15,0-103.64-46.49-103.64-103.64V233.44c0-14.36,11.64-26,26-26s26,11.64,26,26v129.22
		c0,28.48,23.17,51.64,51.64,51.64c14.36,0,26,11.64,26,26S1169.64,466.3,1155.28,466.3z"/>
</g>
<g>
	<g>
		<path class="st2" d="M1551.78,310.44h-77.64c-14.36,0-26-11.64-26-26s11.64-26,26-26h77.64c14.36,0,26,11.64,26,26
			S1566.14,310.44,1551.78,310.44z"/>
	</g>
	<g>
		<path class="st2" d="M1551.78,465.72c-57.15,0-103.64-46.49-103.64-103.64V232.86c0-14.36,11.64-26,26-26s26,11.64,26,26v129.22
			c0,28.48,23.17,51.64,51.64,51.64c14.36,0,26,11.64,26,26S1566.14,465.72,1551.78,465.72z"/>
	</g>
</g>
<g>
	<g>
		<path class="st2" d="M1701.99,310.52h-77.64c-14.36,0-26-11.64-26-26s11.64-26,26-26h77.64c14.36,0,26,11.64,26,26
			S1716.35,310.52,1701.99,310.52z"/>
	</g>
	<g>
		<path class="st2" d="M1701.99,465.81c-57.15,0-103.64-46.49-103.64-103.64V232.95c0-14.36,11.64-26,26-26s26,11.64,26,26v129.22
			c0,28.48,23.17,51.64,51.64,51.64c14.36,0,26,11.64,26,26S1716.35,465.81,1701.99,465.81z"/>
	</g>
</g>
</svg>
