<?xml version="1.0" encoding="utf-8"?>
<!-- Generator: Adobe Illustrator 24.3.0, SVG Export Plug-In . SVG Version: 6.00 Build 0)  -->
<svg version="1.1" id="Capa_1" xmlns="http://www.w3.org/2000/svg" xmlns:xlink="http://www.w3.org/1999/xlink" x="0px" y="0px"
	 viewBox="0 0 2214.9 435.3" style="enable-background:new 0 0 2214.9 435.3;" xml:space="preserve">
<style type="text/css">
	.st0{fill:#FFFFFF;}
</style>
<g>
	<path class="st0" d="M978.7,347.7h-100c-73.6,0-133.5-59.9-133.5-133.5S805.1,80.7,878.7,80.7c39,0,75.9,17,101.3,46.6
		c11.5,13.3,10.6,33.2-1.8,45.6L912.4,238c-13.1,13-34.3,12.9-47.4-0.2c-13-13.1-12.9-34.3,0.2-47.4l38.3-37.9
		c-7.8-3.2-16.2-4.8-24.9-4.8c-36.7,0-66.5,29.8-66.5,66.5s29.8,66.5,66.5,66.5h100c18.5,0,33.5,15,33.5,33.5
		S997.2,347.7,978.7,347.7z"/>
</g>
<g>
	<g>
		<path class="st0" d="M53.3,418.1c-18.5,0-33.5-15-33.5-33.5V217.8c0-73.6,59.9-133.5,133.5-133.5s133.5,59.9,133.5,133.5
			S227,351.3,153.3,351.3H86.8v33.2C86.8,403.1,71.8,418.1,53.3,418.1z M86.8,284.3h66.5c36.7,0,66.5-29.8,66.5-66.5
			s-29.8-66.5-66.5-66.5s-66.5,29.8-66.5,66.5V284.3L86.8,284.3z"/>
	</g>
</g>
<g>
	<path class="st0" d="M370.6,151.3h-33.5v-33.5c0-18.5,15-33.5,33.5-33.5s33.5,15,33.5,33.5S389,151.3,370.6,151.3z"/>
</g>
<g>
	<path class="st0" d="M370.6,351.3c-18.5,0-33.5-15-33.5-33.5V210.6c0-18.5,15-33.5,33.5-33.5s33.5,15,33.5,33.5v107.2
		C404,336.3,389.1,351.3,370.6,351.3z"/>
</g>
<g>
	<g>
		<path class="st0" d="M687.7,351.3c-8.6,0-17.1-3.3-23.7-9.8l-200-200c-13.1-13.1-13.1-34.3,0-47.4s34.3-13.1,47.4,0l200,200
			c13.1,13.1,13.1,34.3,0,47.4C704.8,348.1,696.2,351.3,687.7,351.3z"/>
	</g>
	<g>
		<path class="st0" d="M487.7,351.3c-8.6,0-17.1-3.3-23.7-9.8c-13.1-13.1-13.1-34.3,0-47.4l200-200c13.1-13.1,34.3-13.1,47.4,0
			c13.1,13.1,13.1,34.3,0,47.4l-200,200C504.8,348.1,496.2,351.3,487.7,351.3z"/>
	</g>
</g>
<g>
	<path class="st0" d="M1467.3,351.5h-100c-73.6,0-133.5-59.9-133.5-133.5s59.9-133.5,133.5-133.5s133.5,59.9,133.5,133.5v100
		C1500.7,336.5,1485.7,351.5,1467.3,351.5z M1367.2,151.5c-36.7,0-66.5,29.8-66.5,66.5s29.8,66.5,66.5,66.5h66.5V218
		C1433.8,181.3,1403.9,151.5,1367.2,151.5z"/>
</g>
<g>
	<path class="st0" d="M2071.6,351.3c-73.6,0-133.5-59.9-133.5-133.5S1998,84.4,2071.6,84.4s133.5,59.9,133.5,133.5
		S2145.2,351.3,2071.6,351.3z M2071.6,151.3c-36.7,0-66.5,29.8-66.5,66.5s29.8,66.5,66.5,66.5s66.5-29.8,66.5-66.5
		S2108.2,151.3,2071.6,151.3z"/>
</g>
<g>
	<path class="st0" d="M1174,351.8c-73.6,0-133.5-59.9-133.5-133.5V51.9c0-18.5,15-33.5,33.5-33.5s33.5,15,33.5,33.5v166.4
		c0,36.7,29.8,66.5,66.5,66.5c18.5,0,33.5,15,33.5,33.5S1192.5,351.8,1174,351.8z"/>
</g>
<g>
	<g>
		<path class="st0" d="M1684.7,151.1h-100c-18.5,0-33.5-15-33.5-33.5s15-33.5,33.5-33.5h100c18.5,0,33.5,15,33.5,33.5
			S1703.2,151.1,1684.7,151.1z"/>
	</g>
	<g>
		<path class="st0" d="M1684.7,351.1c-73.6,0-133.5-59.9-133.5-133.5V51.2c0-18.5,15-33.5,33.5-33.5s33.5,15,33.5,33.5v166.4
			c0,36.7,29.8,66.5,66.5,66.5c18.5,0,33.5,15,33.5,33.5C1718.2,336.1,1703.2,351.1,1684.7,351.1z"/>
	</g>
</g>
<g>
	<g>
		<path class="st0" d="M1878.2,151.2h-100c-18.5,0-33.5-15-33.5-33.5s15-33.5,33.5-33.5h100c18.5,0,33.5,15,33.5,33.5
			S1896.7,151.2,1878.2,151.2z"/>
	</g>
	<g>
		<path class="st0" d="M1878.2,351.2c-73.6,0-133.5-59.9-133.5-133.5V51.3c0-18.5,15-33.5,33.5-33.5s33.5,15,33.5,33.5v166.4
			c0,36.7,29.8,66.5,66.5,66.5c18.5,0,33.5,15,33.5,33.5S1896.7,351.2,1878.2,351.2z"/>
	</g>
</g>
</svg>
