<svg width="623" height="114" viewBox="0 0 623 114" fill="none" xmlns="http://www.w3.org/2000/svg">
<path d="M273.367 93.9331H244.864C223.884 93.9331 206.816 76.9463 206.816 56.0646C206.816 35.1829 223.884 18.1962 244.864 18.1962C255.973 18.1962 266.499 23.0119 273.738 31.4048C277.002 35.1865 276.771 40.8354 273.217 44.3431L254.487 62.8169C250.742 66.511 244.699 66.4817 240.988 62.7548C237.276 59.0279 237.305 53.0137 241.05 49.3196L251.953 38.5663C249.725 37.6711 247.324 37.1998 244.864 37.1998C234.409 37.1998 225.906 45.6658 225.906 56.0683C225.906 66.4708 234.412 74.9367 244.864 74.9367H273.367C278.639 74.9367 282.912 79.1898 282.912 84.4367C282.912 89.6837 278.639 93.9331 273.367 93.9331Z" fill="white"/>
<path d="M9.62223 113.898C4.35041 113.898 0.0771484 109.645 0.0771484 104.398V57.095C0.0771484 36.2133 17.1445 19.2265 38.1253 19.2265C59.1061 19.2265 76.1771 36.2133 76.1771 57.095C76.1771 77.9767 59.1061 94.9635 38.1253 94.9635H19.1673V104.394C19.1673 109.641 14.894 113.898 9.62223 113.898ZM19.1673 75.9635H38.1253C48.5808 75.9635 57.0833 67.4975 57.0833 57.095C57.0833 46.6925 48.5772 38.2265 38.1253 38.2265C27.6734 38.2265 19.1673 46.6925 19.1673 57.095V75.9635Z" fill="white"/>
<path d="M100.04 38.2265H90.4946V28.7265C90.4946 23.4869 94.7752 19.2265 100.04 19.2265C105.304 19.2265 109.585 23.4869 109.585 28.7265C109.585 33.9661 105.301 38.2265 100.04 38.2265Z" fill="#E37826"/>
<path d="M100.036 94.9635C94.7642 94.9635 90.491 90.7104 90.491 85.4635V55.0488C90.491 49.8019 94.7642 45.5488 100.036 45.5488C105.308 45.5488 109.581 49.8019 109.581 55.0488V85.4635C109.581 90.7104 105.308 94.9635 100.036 94.9635Z" fill="white"/>
<path d="M190.424 94.9641C187.983 94.9641 185.538 94.036 183.677 92.1799L126.667 35.4429C122.941 31.7343 122.941 25.7164 126.667 22.0078C130.393 18.2991 136.44 18.2991 140.166 22.0078L197.176 78.7483C200.902 82.457 200.902 88.4749 197.176 92.1835C195.311 94.0397 192.866 94.9641 190.424 94.9641Z" fill="white"/>
<path d="M133.414 94.9635C130.973 94.9635 128.528 94.0354 126.667 92.1792C122.941 88.4706 122.941 82.4527 126.667 78.744L183.677 22.0035C187.403 18.2948 193.449 18.2948 197.176 22.0035C200.902 25.7121 200.902 31.73 197.176 35.4387L140.166 92.1829C138.301 94.039 135.86 94.9635 133.414 94.9635Z" fill="white"/>
<path d="M412.623 95.0146H384.12C363.139 95.0146 346.072 78.0279 346.072 57.1461C346.072 36.2644 363.139 19.2777 384.12 19.2777C405.1 19.2777 422.168 36.2644 422.168 57.1461V85.5146C422.168 90.7615 417.891 95.0146 412.623 95.0146ZM384.116 38.2777C373.66 38.2777 365.158 46.7437 365.158 57.1461C365.158 67.5486 373.664 76.0146 384.116 76.0146H403.074V57.1461C403.078 46.7437 394.572 38.2777 384.116 38.2777Z" fill="white"/>
<path d="M584.867 94.9708C563.887 94.9708 546.819 77.984 546.819 57.1023C546.819 36.2206 563.887 19.2339 584.867 19.2339C605.848 19.2339 622.916 36.2206 622.916 57.1023C622.916 77.984 605.848 94.9708 584.867 94.9708ZM584.867 38.2339C574.412 38.2339 565.909 46.6998 565.909 57.1023C565.909 67.5048 574.416 75.9708 584.867 75.9708C595.319 75.9708 603.825 67.5048 603.825 57.1023C603.825 46.6998 595.319 38.2339 584.867 38.2339Z" fill="white"/>
<path d="M329.041 95.1096C308.06 95.1096 290.993 78.1229 290.993 57.2412V10.0262C290.993 4.77923 295.266 0.526154 300.538 0.526154C305.81 0.526154 310.083 4.77923 310.083 10.0262V57.2412C310.083 67.6473 318.589 76.1096 329.041 76.1096C334.313 76.1096 338.586 80.3627 338.586 85.6096C338.586 90.8565 334.313 95.1096 329.041 95.1096Z" fill="white"/>
<path d="M474.603 38.1608H446.1C440.828 38.1608 436.555 33.9077 436.555 28.6608C436.555 23.4138 440.828 19.1608 446.1 19.1608H474.603C479.875 19.1608 484.148 23.4138 484.148 28.6608C484.148 33.9077 479.875 38.1608 474.603 38.1608Z" fill="white"/>
<path d="M474.603 94.8977C453.623 94.8977 436.555 77.911 436.555 57.0292V9.81423C436.555 4.56731 440.828 0.314232 446.1 0.314232C451.372 0.314232 455.645 4.56731 455.645 9.81423V57.0292C455.645 67.4354 464.151 75.8977 474.603 75.8977C479.875 75.8977 484.148 80.1508 484.148 85.3977C484.148 90.6446 479.875 94.8977 474.603 94.8977Z" fill="white"/>
<path d="M529.748 38.19H501.245C495.973 38.19 491.7 33.9369 491.7 28.69C491.7 23.4431 495.973 19.19 501.245 19.19H529.748C535.02 19.19 539.293 23.4431 539.293 28.69C539.293 33.9369 535.02 38.19 529.748 38.19Z" fill="white"/>
<path d="M529.748 94.9306C508.767 94.9306 491.7 77.9439 491.7 57.0621V9.84712C491.7 4.60019 495.973 0.347115 501.245 0.347115C506.517 0.347115 510.79 4.60019 510.79 9.84712V57.0621C510.79 67.4683 519.296 75.9306 529.748 75.9306C535.02 75.9306 539.293 80.1837 539.293 85.4306C539.293 90.6775 535.02 94.9306 529.748 94.9306Z" fill="white"/>
</svg>
