<?xml version="1.0" encoding="utf-8"?>
<!-- Generator: Adobe Illustrator 24.3.0, SVG Export Plug-In . SVG Version: 6.00 Build 0)  -->
<svg version="1.1" id="Capa_1" xmlns="http://www.w3.org/2000/svg" xmlns:xlink="http://www.w3.org/1999/xlink" x="0px" y="0px"
	 viewBox="0 0 700.38 240.16" style="enable-background:new 0 0 700.38 240.16;" xml:space="preserve">
<style type="text/css">
	.st0{fill:#76CBD2;}
	.st1{fill:#1A9CC0;}
</style>
<g>
	<path class="st0" d="M282.56,104.31c-5.18,0-10.03-0.98-14.54-2.93c-4.51-1.95-8.45-4.67-11.81-8.16
		c-3.36-3.49-5.99-7.57-7.87-12.24c-1.89-4.67-2.83-9.73-2.83-15.17c0-5.38,0.94-10.38,2.83-15.02c1.89-4.64,4.51-8.7,7.87-12.19
		c3.36-3.49,7.28-6.22,11.76-8.21c4.48-1.98,9.34-2.98,14.59-2.98c4.93,0,9.17,0.64,12.72,1.92c3.55,1.28,7.12,3.39,10.7,6.34
		c0.51,0.38,0.91,0.78,1.2,1.2c0.29,0.42,0.48,0.83,0.58,1.25c0.1,0.42,0.14,0.91,0.14,1.49c0,1.22-0.43,2.22-1.3,3.02
		c-0.86,0.8-1.91,1.25-3.12,1.34c-1.22,0.1-2.4-0.3-3.55-1.2c-2.37-2.05-4.82-3.61-7.34-4.7c-2.53-1.09-5.87-1.63-10.03-1.63
		c-3.78,0-7.33,0.77-10.66,2.3c-3.33,1.54-6.26,3.65-8.78,6.34c-2.53,2.69-4.5,5.81-5.9,9.36c-1.41,3.55-2.11,7.34-2.11,11.38
		c0,4.1,0.7,7.92,2.11,11.47c1.41,3.55,3.38,6.67,5.9,9.36c2.53,2.69,5.46,4.79,8.78,6.29c3.33,1.5,6.88,2.26,10.66,2.26
		c3.26,0,6.35-0.56,9.26-1.68c2.91-1.12,5.71-2.67,8.4-4.66c1.15-0.83,2.29-1.2,3.41-1.1c1.12,0.1,2.06,0.54,2.83,1.34
		c0.77,0.8,1.15,1.9,1.15,3.31c0,0.64-0.13,1.26-0.38,1.87c-0.26,0.61-0.64,1.17-1.15,1.68c-3.46,2.75-7.15,4.83-11.09,6.24
		C291.05,103.6,286.91,104.31,282.56,104.31z"/>
</g>
<g>
	<path class="st1" d="M340.83,103.73c-4.67,0-8.87-1.17-12.58-3.5c-3.71-2.34-6.64-5.5-8.78-9.5c-2.14-4-3.22-8.53-3.22-13.58
		c0-5.06,1.17-9.6,3.5-13.63c2.33-4.03,5.5-7.22,9.5-9.55c4-2.34,8.5-3.5,13.49-3.5s9.47,1.17,13.44,3.5
		c3.97,2.34,7.12,5.52,9.46,9.55c2.34,4.03,3.5,8.58,3.5,13.63h-3.74c0,5.06-1.07,9.58-3.22,13.58c-2.14,4-5.07,7.17-8.78,9.5
		C349.69,102.56,345.5,103.73,340.83,103.73z M342.75,95.09c3.26,0,6.17-0.78,8.74-2.35c2.56-1.57,4.58-3.71,6.05-6.43
		c1.47-2.72,2.21-5.77,2.21-9.17c0-3.46-0.74-6.54-2.21-9.26c-1.47-2.72-3.49-4.86-6.05-6.43c-2.56-1.57-5.47-2.35-8.74-2.35
		c-3.2,0-6.1,0.78-8.69,2.35c-2.59,1.57-4.64,3.71-6.14,6.43c-1.5,2.72-2.26,5.81-2.26,9.26c0,3.39,0.75,6.45,2.26,9.17
		c1.5,2.72,3.55,4.86,6.14,6.43C336.65,94.31,339.55,95.09,342.75,95.09z M364.25,103.44c-1.41,0-2.58-0.46-3.5-1.39
		c-0.93-0.93-1.39-2.1-1.39-3.5V83.86l1.82-10.18l7.97,3.46v21.41c0,1.41-0.46,2.58-1.39,3.5
		C366.83,102.98,365.66,103.44,364.25,103.44z"/>
	<path class="st1" d="M388.54,103.35c-1.54,0-2.72-0.4-3.55-1.2c-0.83-0.8-1.25-2-1.25-3.6V55.63c0-1.54,0.42-2.72,1.25-3.55
		c0.83-0.83,2.02-1.25,3.55-1.25c1.6,0,2.8,0.4,3.6,1.2c0.8,0.8,1.2,2,1.2,3.6v42.91c0,1.54-0.4,2.72-1.2,3.55
		C391.34,102.93,390.14,103.35,388.54,103.35z M388.44,70.51c0-3.84,0.94-7.28,2.83-10.32c1.89-3.04,4.43-5.46,7.63-7.25
		c3.2-1.79,6.72-2.69,10.56-2.69s6.7,0.62,8.59,1.87c1.89,1.25,2.61,2.74,2.16,4.46c-0.19,0.9-0.56,1.58-1.1,2.06
		c-0.54,0.48-1.17,0.78-1.87,0.91c-0.7,0.13-1.47,0.1-2.3-0.1c-4.1-0.83-7.78-0.9-11.04-0.19c-3.26,0.71-5.84,2.02-7.73,3.94
		c-1.89,1.92-2.83,4.35-2.83,7.3H388.44z"/>
	<path class="st1" d="M452.67,103.73c-4.99,0-9.49-1.17-13.49-3.5c-4-2.34-7.17-5.52-9.5-9.55c-2.34-4.03-3.5-8.58-3.5-13.63
		c0-5.05,1.07-9.58,3.22-13.58c2.14-4,5.07-7.17,8.78-9.5c3.71-2.34,7.9-3.5,12.58-3.5c3.78,0,7.26,0.78,10.46,2.35
		c3.2,1.57,5.89,3.7,8.06,6.38V33.27c0-1.47,0.46-2.65,1.39-3.55c0.93-0.9,2.1-1.34,3.5-1.34c1.47,0,2.66,0.45,3.55,1.34
		c0.9,0.9,1.34,2.08,1.34,3.55v43.78c0,5.06-1.17,9.6-3.5,13.63c-2.34,4.03-5.49,7.22-9.46,9.55
		C462.14,102.56,457.66,103.73,452.67,103.73z M452.67,95.09c3.26,0,6.17-0.78,8.74-2.35c2.56-1.57,4.58-3.73,6.05-6.48
		c1.47-2.75,2.21-5.82,2.21-9.22c0-3.46-0.74-6.53-2.21-9.22c-1.47-2.69-3.49-4.81-6.05-6.38c-2.56-1.57-5.47-2.35-8.74-2.35
		c-3.2,0-6.1,0.78-8.69,2.35c-2.59,1.57-4.64,3.7-6.14,6.38c-1.5,2.69-2.26,5.76-2.26,9.22c0,3.39,0.75,6.47,2.26,9.22
		c1.5,2.75,3.55,4.91,6.14,6.48C446.57,94.31,449.47,95.09,452.67,95.09z"/>
</g>
<g>
	<path class="st0" d="M283.6,200.71c-5.18,0-10.03-0.98-14.54-2.93c-4.51-1.95-8.45-4.67-11.81-8.16
		c-3.36-3.49-5.98-7.57-7.87-12.24c-1.89-4.67-2.83-9.73-2.83-15.17c0-5.38,0.94-10.38,2.83-15.02c1.89-4.64,4.51-8.7,7.87-12.19
		c3.36-3.49,7.28-6.22,11.76-8.21c4.48-1.98,9.34-2.98,14.59-2.98c4.93,0,9.17,0.64,12.72,1.92c3.55,1.28,7.12,3.39,10.7,6.34
		c0.51,0.38,0.91,0.79,1.2,1.2c0.29,0.42,0.48,0.83,0.58,1.25c0.1,0.42,0.14,0.91,0.14,1.49c0,1.22-0.43,2.22-1.3,3.02
		c-0.86,0.8-1.91,1.25-3.12,1.34c-1.22,0.1-2.4-0.3-3.55-1.2c-2.37-2.05-4.82-3.62-7.34-4.7c-2.53-1.09-5.87-1.63-10.03-1.63
		c-3.78,0-7.33,0.77-10.66,2.3c-3.33,1.54-6.26,3.65-8.78,6.34c-2.53,2.69-4.5,5.81-5.9,9.36c-1.41,3.55-2.11,7.34-2.11,11.38
		c0,4.1,0.7,7.92,2.11,11.47c1.41,3.55,3.38,6.67,5.9,9.36c2.53,2.69,5.46,4.79,8.78,6.29c3.33,1.5,6.88,2.26,10.66,2.26
		c3.26,0,6.35-0.56,9.26-1.68c2.91-1.12,5.71-2.67,8.4-4.66c1.15-0.83,2.29-1.2,3.41-1.1c1.12,0.1,2.06,0.54,2.83,1.34
		c0.77,0.8,1.15,1.9,1.15,3.31c0,0.64-0.13,1.26-0.38,1.87c-0.26,0.61-0.64,1.17-1.15,1.68c-3.46,2.75-7.15,4.83-11.09,6.24
		C292.09,200,287.95,200.71,283.6,200.71z"/>
</g>
<g>
	<path class="st1" d="M329.69,199.75c-1.54,0-2.72-0.4-3.55-1.2c-0.83-0.8-1.25-2-1.25-3.6v-42.91c0-1.54,0.42-2.72,1.25-3.55
		c0.83-0.83,2.02-1.25,3.55-1.25c1.6,0,2.8,0.4,3.6,1.2c0.8,0.8,1.2,2,1.2,3.6v42.91c0,1.54-0.4,2.72-1.2,3.55
		C332.49,199.33,331.29,199.75,329.69,199.75z M329.6,166.92c0-3.84,0.94-7.28,2.83-10.32c1.89-3.04,4.43-5.46,7.63-7.25
		c3.2-1.79,6.72-2.69,10.56-2.69s6.7,0.62,8.59,1.87c1.89,1.25,2.61,2.74,2.16,4.46c-0.19,0.9-0.56,1.58-1.1,2.06
		c-0.54,0.48-1.17,0.79-1.87,0.91c-0.7,0.13-1.47,0.1-2.3-0.1c-4.1-0.83-7.78-0.9-11.04-0.19c-3.26,0.71-5.84,2.02-7.73,3.94
		c-1.89,1.92-2.83,4.35-2.83,7.3H329.6z"/>
	<path class="st1" d="M394.59,200.13c-5.31,0-10.03-1.14-14.16-3.41c-4.13-2.27-7.36-5.41-9.7-9.41c-2.34-4-3.5-8.59-3.5-13.78
		c0-5.25,1.1-9.87,3.31-13.87c2.21-4,5.26-7.14,9.17-9.41c3.9-2.27,8.38-3.41,13.44-3.41c4.99,0,9.28,1.1,12.86,3.31
		c3.58,2.21,6.32,5.25,8.21,9.12c1.89,3.87,2.83,8.34,2.83,13.39c0,1.22-0.42,2.22-1.25,3.02c-0.83,0.8-1.89,1.2-3.17,1.2h-38.69
		v-7.68h38.4l-3.94,2.69c-0.06-3.2-0.71-6.06-1.92-8.59c-1.22-2.53-2.94-4.53-5.18-6c-2.24-1.47-4.96-2.21-8.16-2.21
		c-3.65,0-6.77,0.8-9.36,2.4c-2.59,1.6-4.56,3.79-5.9,6.58c-1.34,2.78-2.02,5.94-2.02,9.46c0,3.52,0.8,6.66,2.4,9.41
		c1.6,2.75,3.81,4.93,6.62,6.53c2.82,1.6,6.05,2.4,9.7,2.4c1.98,0,4.02-0.37,6.1-1.1c2.08-0.73,3.76-1.58,5.04-2.54
		c0.96-0.7,2-1.07,3.12-1.1c1.12-0.03,2.09,0.3,2.93,1.01c1.09,0.96,1.66,2.02,1.73,3.17c0.06,1.15-0.45,2.14-1.54,2.98
		c-2.18,1.73-4.88,3.14-8.11,4.22C400.62,199.59,397.53,200.13,394.59,200.13z"/>
	<path class="st1" d="M451.42,200.13c-4.67,0-8.87-1.17-12.58-3.5c-3.71-2.34-6.64-5.5-8.78-9.5c-2.14-4-3.22-8.53-3.22-13.58
		c0-5.06,1.17-9.6,3.5-13.63c2.33-4.03,5.5-7.22,9.5-9.55c4-2.33,8.5-3.5,13.49-3.5s9.47,1.17,13.44,3.5
		c3.97,2.34,7.12,5.52,9.46,9.55c2.34,4.03,3.5,8.58,3.5,13.63h-3.74c0,5.06-1.07,9.58-3.22,13.58c-2.14,4-5.07,7.17-8.78,9.5
		C460.28,198.97,456.09,200.13,451.42,200.13z M453.34,191.49c3.26,0,6.17-0.78,8.74-2.35c2.56-1.57,4.58-3.71,6.05-6.43
		c1.47-2.72,2.21-5.78,2.21-9.17c0-3.46-0.74-6.54-2.21-9.26c-1.47-2.72-3.49-4.86-6.05-6.43c-2.56-1.57-5.47-2.35-8.74-2.35
		c-3.2,0-6.1,0.78-8.69,2.35c-2.59,1.57-4.64,3.71-6.14,6.43c-1.5,2.72-2.26,5.81-2.26,9.26c0,3.39,0.75,6.45,2.26,9.17
		c1.5,2.72,3.55,4.86,6.14,6.43C447.24,190.71,450.14,191.49,453.34,191.49z M474.84,199.85c-1.41,0-2.58-0.46-3.5-1.39
		c-0.93-0.93-1.39-2.1-1.39-3.5v-14.69l1.82-10.18l7.97,3.46v21.41c0,1.41-0.46,2.58-1.39,3.5
		C477.42,199.38,476.25,199.85,474.84,199.85z"/>
	<path class="st1" d="M491.74,157.41c-1.34,0-2.43-0.38-3.26-1.15c-0.83-0.77-1.25-1.73-1.25-2.88c0-1.28,0.42-2.3,1.25-3.07
		c0.83-0.77,1.92-1.15,3.26-1.15h22.18c1.34,0,2.43,0.38,3.26,1.15c0.83,0.77,1.25,1.79,1.25,3.07c0,1.15-0.42,2.11-1.25,2.88
		c-0.83,0.77-1.92,1.15-3.26,1.15H491.74z M513.05,199.75c-3.2,0-6.08-0.82-8.64-2.45s-4.58-3.86-6.05-6.67
		c-1.47-2.82-2.21-5.98-2.21-9.5v-45.79c0-1.41,0.45-2.56,1.34-3.46c0.9-0.9,2.05-1.34,3.46-1.34c1.41,0,2.56,0.45,3.46,1.34
		c0.9,0.9,1.34,2.05,1.34,3.46v45.79c0,2.56,0.7,4.7,2.11,6.43c1.41,1.73,3.14,2.59,5.18,2.59h3.26c1.15,0,2.13,0.45,2.93,1.34
		c0.8,0.9,1.2,2.05,1.2,3.46c0,1.41-0.53,2.56-1.58,3.46c-1.06,0.9-2.42,1.34-4.08,1.34H513.05z"/>
	<path class="st1" d="M556.15,200.13c-5.18,0-9.76-1.14-13.73-3.41c-3.97-2.27-7.09-5.41-9.36-9.41c-2.27-4-3.41-8.59-3.41-13.78
		c0-5.25,1.14-9.87,3.41-13.87c2.27-4,5.39-7.14,9.36-9.41c3.97-2.27,8.54-3.41,13.73-3.41c5.12,0,9.66,1.14,13.63,3.41
		c3.97,2.27,7.09,5.41,9.36,9.41c2.27,4,3.41,8.63,3.41,13.87c0,5.18-1.12,9.78-3.36,13.78c-2.24,4-5.34,7.14-9.31,9.41
		C565.91,199,561.34,200.13,556.15,200.13z M556.15,191.49c3.33,0,6.27-0.77,8.83-2.3c2.56-1.54,4.56-3.65,6-6.34
		c1.44-2.69,2.16-5.79,2.16-9.31c0-3.52-0.72-6.64-2.16-9.36c-1.44-2.72-3.44-4.85-6-6.38c-2.56-1.54-5.5-2.3-8.83-2.3
		c-3.33,0-6.27,0.77-8.83,2.3c-2.56,1.54-4.58,3.66-6.05,6.38c-1.47,2.72-2.21,5.84-2.21,9.36c0,3.52,0.73,6.62,2.21,9.31
		c1.47,2.69,3.49,4.8,6.05,6.34C549.88,190.73,552.82,191.49,556.15,191.49z"/>
	<path class="st1" d="M601.94,199.75c-1.54,0-2.72-0.4-3.55-1.2c-0.83-0.8-1.25-2-1.25-3.6v-42.91c0-1.54,0.42-2.72,1.25-3.55
		c0.83-0.83,2.02-1.25,3.55-1.25c1.6,0,2.8,0.4,3.6,1.2c0.8,0.8,1.2,2,1.2,3.6v42.91c0,1.54-0.4,2.72-1.2,3.55
		C604.74,199.33,603.54,199.75,601.94,199.75z M601.85,166.92c0-3.84,0.94-7.28,2.83-10.32c1.89-3.04,4.43-5.46,7.63-7.25
		c3.2-1.79,6.72-2.69,10.56-2.69s6.7,0.62,8.59,1.87c1.89,1.25,2.61,2.74,2.16,4.46c-0.19,0.9-0.56,1.58-1.1,2.06
		c-0.54,0.48-1.17,0.79-1.87,0.91c-0.7,0.13-1.47,0.1-2.3-0.1c-4.1-0.83-7.78-0.9-11.04-0.19c-3.26,0.71-5.84,2.02-7.73,3.94
		c-1.89,1.92-2.83,4.35-2.83,7.3H601.85z"/>
</g>
<path class="st0" d="M180.8,81.92v95.55c0,7.89-6.39,14.27-14.27,14.27h-56.55c-7.88,0-14.27-6.38-14.27-14.27v-2.08h43.3
	c12.45,0,22.57-10.13,22.57-22.57V67.65h4.95C174.41,67.65,180.8,74.04,180.8,81.92z"/>
<path class="st1" d="M153.58,57.86v94.96c0,8.05-6.52,14.57-14.57,14.57H83.05c-8.04,0-14.56-6.52-14.56-14.57V57.86
	c0-8.04,6.52-14.57,14.56-14.57h55.96C147.06,43.29,153.58,49.83,153.58,57.86z"/>
</svg>
