<svg width="236" height="73" viewBox="0 0 236 73" fill="none" xmlns="http://www.w3.org/2000/svg">
<path d="M89.2551 32.4335C87.0982 32.4335 85.0787 32.0255 83.2008 31.2135C81.3229 30.4016 79.6823 29.269 78.2832 27.8158C76.8842 26.3626 75.7891 24.6637 75.0063 22.7192C74.2193 20.7746 73.8279 18.6677 73.8279 16.4025C73.8279 14.1624 74.2193 12.0804 75.0063 10.1484C75.7932 8.21634 76.8842 6.5258 78.2832 5.0726C79.6823 3.6194 81.3146 2.48266 83.18 1.65405C85.0454 0.829597 87.0691 0.413208 89.2551 0.413208C91.3079 0.413208 93.0734 0.679697 94.5516 1.21268C96.0297 1.74565 97.5163 2.62423 99.0069 3.85258C99.2193 4.01081 99.3858 4.17736 99.5066 4.35225C99.6273 4.52713 99.7065 4.69785 99.7481 4.87273C99.7897 5.04762 99.8064 5.25165 99.8064 5.49316C99.8064 6.00115 99.6274 6.41754 99.2651 6.75065C98.907 7.08376 98.4698 7.27114 97.966 7.30861C97.458 7.35025 96.9666 7.18369 96.4878 6.80894C95.5009 5.95535 94.4808 5.30578 93.4315 4.85192C92.378 4.39805 90.9873 4.1732 89.2551 4.1732C87.6811 4.1732 86.203 4.49382 84.8164 5.1309C83.4298 5.77214 82.2098 6.65072 81.1605 7.7708C80.107 8.89089 79.2867 10.19 78.7038 11.6682C78.1167 13.1464 77.8252 14.7245 77.8252 16.4067C77.8252 18.1139 78.1167 19.7045 78.7038 21.1827C79.2909 22.6609 80.1112 23.96 81.1605 25.0801C82.214 26.2002 83.434 27.0746 84.8164 27.6992C86.203 28.3238 87.6811 28.6402 89.2551 28.6402C90.6125 28.6402 91.8992 28.407 93.1109 27.9407C94.3226 27.4743 95.4884 26.8289 96.6085 26.0003C97.0874 25.6547 97.5621 25.5007 98.0284 25.5423C98.4948 25.5839 98.8862 25.7671 99.2068 26.1003C99.5274 26.4334 99.6856 26.8914 99.6856 27.4785C99.6856 27.745 99.6315 28.0031 99.5274 28.2571C99.4192 28.5111 99.2609 28.7443 99.0486 28.9567C97.6079 30.1018 96.0714 30.9678 94.4308 31.5549C92.7902 32.1379 91.0664 32.4335 89.2551 32.4335Z" fill="#76CBD2"/>
<path d="M113.518 32.192C111.574 32.192 109.825 31.7048 108.28 30.7347C106.735 29.7603 105.515 28.4445 104.624 26.779C103.733 25.1134 103.283 23.2272 103.283 21.1244C103.283 19.0175 103.771 17.1271 104.741 15.449C105.711 13.771 107.031 12.4427 108.696 11.4725C110.362 10.4981 112.236 10.0151 114.313 10.0151C116.391 10.0151 118.257 10.5023 119.91 11.4725C121.563 12.4468 122.874 13.771 123.849 15.449C124.823 17.1271 125.306 19.0216 125.306 21.1244H123.749C123.749 23.2313 123.303 25.1134 122.408 26.779C121.517 28.4445 120.297 29.7645 118.752 30.7347C117.207 31.7048 115.463 32.192 113.518 32.192ZM114.318 28.5944C115.675 28.5944 116.887 28.2696 117.957 27.6159C119.023 26.9622 119.864 26.0711 120.476 24.9385C121.088 23.8059 121.396 22.536 121.396 21.1202C121.396 19.6795 121.088 18.397 120.476 17.2645C119.864 16.1319 119.023 15.2408 117.957 14.5871C116.891 13.9334 115.679 13.6086 114.318 13.6086C112.985 13.6086 111.778 13.9334 110.699 14.5871C109.621 15.2408 108.767 16.1319 108.143 17.2645C107.518 18.397 107.202 19.6837 107.202 21.1202C107.202 22.5318 107.514 23.8059 108.143 24.9385C108.767 26.0711 109.621 26.9622 110.699 27.6159C111.778 28.2696 112.985 28.5944 114.318 28.5944ZM123.27 32.0713C122.683 32.0713 122.196 31.8797 121.813 31.4925C121.425 31.1052 121.234 30.6181 121.234 30.0351V23.9184L121.992 19.6795L125.31 21.1202V30.0351C125.31 30.6222 125.119 31.1094 124.732 31.4925C124.344 31.8797 123.857 32.0713 123.27 32.0713Z" fill="#1A9CC0"/>
<path d="M133.384 32.0338C132.743 32.0338 132.252 31.8672 131.906 31.5341C131.56 31.201 131.385 30.7013 131.385 30.0351V12.1637C131.385 11.5225 131.56 11.0311 131.906 10.6855C132.252 10.3399 132.747 10.165 133.384 10.165C134.05 10.165 134.55 10.3316 134.883 10.6647C135.216 10.9978 135.383 11.4975 135.383 12.1637V30.031C135.383 30.6722 135.216 31.1635 134.883 31.5091C134.55 31.8589 134.05 32.0338 133.384 32.0338ZM133.343 18.3596C133.343 16.7606 133.734 15.3283 134.521 14.0624C135.308 12.7966 136.366 11.7889 137.698 11.0436C139.03 10.2983 140.496 9.92352 142.095 9.92352C143.694 9.92352 144.885 10.1817 145.672 10.7022C146.459 11.2227 146.759 11.8431 146.571 12.5593C146.492 12.934 146.338 13.2172 146.113 13.417C145.888 13.6169 145.626 13.7418 145.335 13.7959C145.043 13.8501 144.722 13.8376 144.377 13.7543C142.67 13.4087 141.137 13.3796 139.78 13.6752C138.422 13.9708 137.348 14.5163 136.561 15.3158C135.774 16.1152 135.383 17.1271 135.383 18.3554H133.343V18.3596Z" fill="#1A9CC0"/>
<path d="M160.087 32.192C158.009 32.192 156.136 31.7048 154.47 30.7346C152.805 29.7603 151.485 28.4362 150.514 26.7581C149.54 25.0801 149.057 23.1855 149.057 21.0827C149.057 18.98 149.503 17.0937 150.398 15.4282C151.289 13.7626 152.509 12.4427 154.054 11.4725C155.598 10.4981 157.343 10.0151 159.292 10.0151C160.866 10.0151 162.315 10.3399 163.647 10.9936C164.98 11.6474 166.1 12.5343 167.003 13.6502V2.85322C167.003 2.24113 167.195 1.74979 167.582 1.37504C167.969 1.00029 168.457 0.817078 169.04 0.817078C169.652 0.817078 170.147 1.00445 170.518 1.37504C170.892 1.74979 171.076 2.24113 171.076 2.85322V21.0827C171.076 23.1897 170.588 25.0801 169.618 26.7581C168.644 28.4362 167.332 29.7645 165.679 30.7346C164.03 31.7048 162.165 32.192 160.087 32.192ZM160.087 28.5944C161.445 28.5944 162.656 28.2696 163.726 27.6159C164.792 26.9622 165.633 26.0628 166.246 24.9177C166.858 23.7726 167.166 22.4943 167.166 21.0786C167.166 19.6379 166.858 18.3596 166.246 17.2395C165.633 16.1194 164.792 15.2366 163.726 14.5829C162.66 13.9292 161.449 13.6044 160.087 13.6044C158.755 13.6044 157.547 13.9292 156.469 14.5829C155.39 15.2366 154.537 16.1235 153.912 17.2395C153.288 18.3596 152.971 19.6379 152.971 21.0786C152.971 22.4901 153.283 23.7726 153.912 24.9177C154.537 26.0628 155.39 26.9622 156.469 27.6159C157.547 28.2696 158.755 28.5944 160.087 28.5944Z" fill="#1A9CC0"/>
<path d="M89.6882 72.5734C87.5313 72.5734 85.5118 72.1654 83.6339 71.3534C81.756 70.5414 80.1154 69.4089 78.7163 67.9557C77.3173 66.5025 76.2263 64.8036 75.4394 62.8591C74.6524 60.9145 74.261 58.8076 74.261 56.5424C74.261 54.3023 74.6524 52.2203 75.4394 50.2883C76.2263 48.3562 77.3173 46.6657 78.7163 45.2125C80.1154 43.7593 81.7477 42.6226 83.6131 41.7939C85.4785 40.9695 87.5022 40.5531 89.6882 40.5531C91.741 40.5531 93.5065 40.8196 94.9847 41.3526C96.4628 41.8855 97.9494 42.7641 99.44 43.9925C99.6524 44.1507 99.8189 44.3214 99.9397 44.4921C100.06 44.667 100.14 44.8377 100.181 45.0126C100.223 45.1875 100.239 45.3915 100.239 45.633C100.239 46.141 100.06 46.5574 99.6982 46.8905C99.3401 47.2237 98.9029 47.411 98.3991 47.4485C97.8911 47.4901 97.3997 47.3236 96.9209 46.9488C95.934 46.0952 94.9139 45.4415 93.8646 44.9918C92.8111 44.5379 91.4204 44.3131 89.6882 44.3131C88.1142 44.3131 86.6361 44.6337 85.2495 45.2708C83.8629 45.912 82.6429 46.7906 81.5936 47.9107C80.5401 49.0308 79.7198 50.3299 79.1369 51.8081C78.5498 53.2863 78.2583 54.8644 78.2583 56.5466C78.2583 58.2538 78.5498 59.8444 79.1369 61.3226C79.724 62.8008 80.5443 64.0999 81.5936 65.22C82.6471 66.3401 83.8671 67.2145 85.2495 67.8391C86.6361 68.4637 88.1142 68.7801 89.6882 68.7801C91.0456 68.7801 92.3323 68.5469 93.544 68.0806C94.7557 67.6142 95.9215 66.9688 97.0416 66.1402C97.5205 65.7946 97.9952 65.6405 98.4615 65.6822C98.9279 65.7238 99.3193 65.907 99.6399 66.2401C99.9605 66.5733 100.119 67.0313 100.119 67.6184C100.119 67.8849 100.065 68.143 99.9605 68.397C99.8523 68.651 99.694 68.8842 99.4817 69.0966C98.041 70.2416 96.5045 71.1077 94.8639 71.6948C93.2233 72.2778 91.4995 72.5734 89.6882 72.5734Z" fill="#76CBD2"/>
<path d="M108.88 72.1737C108.238 72.1737 107.747 72.0072 107.401 71.674C107.056 71.3409 106.881 70.8413 106.881 70.175V52.3078C106.881 51.6666 107.056 51.1752 107.401 50.8296C107.747 50.484 108.243 50.3091 108.88 50.3091C109.546 50.3091 110.046 50.4757 110.379 50.8088C110.712 51.1419 110.878 51.6416 110.878 52.3078V70.175C110.878 70.8163 110.712 71.3076 110.379 71.6532C110.046 71.9988 109.546 72.1737 108.88 72.1737ZM108.842 58.5037C108.842 56.9047 109.234 55.4724 110.021 54.2065C110.808 52.9407 111.865 51.933 113.198 51.1877C114.53 50.4424 115.996 50.0676 117.595 50.0676C119.194 50.0676 120.384 50.3258 121.171 50.8463C121.958 51.3668 122.258 51.9872 122.071 52.7034C121.992 53.0781 121.838 53.3613 121.613 53.5611C121.388 53.761 121.126 53.8901 120.834 53.94C120.543 53.9942 120.222 53.9817 119.876 53.8984C118.169 53.5528 116.637 53.5237 115.28 53.8193C113.922 54.1149 112.848 54.6604 112.061 55.4599C111.274 56.2593 110.882 57.2712 110.882 58.4995H108.842V58.5037Z" fill="#1A9CC0"/>
<path d="M135.903 72.332C133.692 72.332 131.727 71.8573 130.007 70.9121C128.288 69.9669 126.943 68.6594 125.968 66.9938C124.994 65.3283 124.511 63.4171 124.511 61.256C124.511 59.07 124.969 57.1462 125.889 55.4807C126.809 53.8151 128.079 52.5077 129.708 51.5625C131.331 50.6173 133.197 50.1426 135.304 50.1426C137.382 50.1426 139.168 50.6006 140.659 51.5208C142.149 52.441 143.29 53.7069 144.077 55.3183C144.864 56.9297 145.255 58.791 145.255 60.8937C145.255 61.4017 145.081 61.8181 144.735 62.1512C144.389 62.4843 143.948 62.6509 143.415 62.6509H127.305V59.453H143.294L141.654 60.5731C141.629 59.2407 141.358 58.0498 140.854 56.9963C140.346 55.9429 139.63 55.1101 138.697 54.498C137.765 53.8859 136.632 53.5778 135.3 53.5778C133.78 53.5778 132.481 53.9109 131.402 54.5771C130.324 55.2433 129.503 56.1552 128.946 57.317C128.388 58.4745 128.104 59.7903 128.104 61.256C128.104 62.7217 128.438 64.0292 129.104 65.1742C129.77 66.3193 130.69 67.227 131.86 67.8932C133.034 68.5595 134.379 68.8926 135.899 68.8926C136.724 68.8926 137.573 68.7385 138.439 68.4345C139.305 68.1306 140.005 67.7767 140.538 67.3769C140.938 67.0854 141.371 66.9314 141.837 66.9189C142.303 66.9064 142.707 67.0438 143.057 67.3394C143.511 67.7392 143.748 68.1805 143.777 68.6594C143.802 69.1382 143.59 69.5505 143.136 69.9002C142.228 70.6206 141.104 71.2077 139.759 71.6574C138.414 72.1071 137.128 72.332 135.903 72.332Z" fill="#1A9CC0"/>
<path d="M159.567 72.3319C157.622 72.3319 155.873 71.8447 154.329 70.8746C152.784 69.9002 151.564 68.5844 150.673 66.9189C149.782 65.2533 149.332 63.3671 149.332 61.2643C149.332 59.1574 149.819 57.267 150.789 55.5889C151.759 53.9109 153.079 52.5826 154.745 51.6124C156.411 50.6422 158.284 50.155 160.362 50.155C162.44 50.155 164.305 50.6422 165.958 51.6124C167.611 52.5867 168.923 53.9109 169.897 55.5889C170.872 57.267 171.355 59.1615 171.355 61.2643H169.797C169.797 63.3712 169.352 65.2533 168.457 66.9189C167.566 68.5844 166.346 69.9044 164.801 70.8746C163.256 71.8489 161.511 72.3319 159.567 72.3319ZM160.366 68.7343C161.724 68.7343 162.935 68.4095 164.005 67.7558C165.071 67.1021 165.913 66.211 166.525 65.0784C167.137 63.9458 167.445 62.6717 167.445 61.2601C167.445 59.8194 167.137 58.5369 166.525 57.4044C165.913 56.2718 165.071 55.3807 164.005 54.727C162.939 54.0733 161.728 53.7485 160.366 53.7485C159.034 53.7485 157.826 54.0733 156.748 54.727C155.669 55.3807 154.816 56.2718 154.191 57.4044C153.567 58.5369 153.25 59.8236 153.25 61.2601C153.25 62.6717 153.562 63.9458 154.191 65.0784C154.816 66.211 155.669 67.1021 156.748 67.7558C157.826 68.4095 159.034 68.7343 160.366 68.7343ZM169.319 72.2153C168.731 72.2153 168.244 72.0238 167.861 71.6365C167.474 71.2493 167.282 70.7621 167.282 70.1792V64.0624L168.04 59.8236L171.359 61.2643V70.1792C171.359 70.7663 171.167 71.2535 170.78 71.6365C170.393 72.0196 169.906 72.2153 169.319 72.2153Z" fill="#1A9CC0"/>
<path d="M176.356 54.5438C175.798 54.5438 175.344 54.3856 174.998 54.0649C174.653 53.7443 174.478 53.3446 174.478 52.8657C174.478 52.3328 174.653 51.908 174.998 51.5874C175.344 51.2668 175.798 51.1086 176.356 51.1086H185.591C186.149 51.1086 186.603 51.2668 186.949 51.5874C187.294 51.908 187.469 52.3328 187.469 52.8657C187.469 53.3446 187.294 53.7443 186.949 54.0649C186.603 54.3856 186.149 54.5438 185.591 54.5438H176.356ZM185.229 72.1737C183.896 72.1737 182.697 71.8323 181.631 71.1535C180.565 70.4748 179.724 69.5463 179.112 68.3762C178.5 67.202 178.192 65.8862 178.192 64.4205V45.3541C178.192 44.767 178.379 44.2881 178.75 43.9134C179.125 43.5386 179.603 43.3554 180.191 43.3554C180.778 43.3554 181.256 43.5428 181.631 43.9134C182.006 44.2881 182.189 44.767 182.189 45.3541V64.4205C182.189 65.4865 182.481 66.3776 183.068 67.0979C183.655 67.8183 184.375 68.1764 185.225 68.1764H186.582C187.061 68.1764 187.469 68.3637 187.802 68.7343C188.135 69.1091 188.302 69.5879 188.302 70.175C188.302 70.7621 188.081 71.241 187.644 71.6157C187.203 71.9905 186.636 72.1737 185.945 72.1737H185.229Z" fill="#1A9CC0"/>
<path d="M203.175 72.332C201.018 72.332 199.111 71.8573 197.458 70.9121C195.805 69.9669 194.506 68.6594 193.561 66.9938C192.615 65.3283 192.141 63.4171 192.141 61.256C192.141 59.07 192.615 57.1462 193.561 55.4807C194.506 53.8151 195.805 52.5077 197.458 51.5625C199.111 50.6173 201.014 50.1426 203.175 50.1426C205.307 50.1426 207.197 50.6173 208.85 51.5625C210.503 52.5077 211.803 53.8151 212.748 55.4807C213.693 57.1462 214.168 59.0741 214.168 61.256C214.168 63.4129 213.701 65.3283 212.769 66.9938C211.836 68.6594 210.545 69.9669 208.892 70.9121C207.239 71.8614 205.336 72.332 203.175 72.332ZM203.175 68.7344C204.562 68.7344 205.786 68.4137 206.852 67.7767C207.918 67.1354 208.75 66.2568 209.35 65.1367C209.95 64.0167 210.249 62.7259 210.249 61.2602C210.249 59.7945 209.95 58.4953 209.35 57.3628C208.75 56.2302 207.918 55.3433 206.852 54.7062C205.786 54.065 204.562 53.7485 203.175 53.7485C201.788 53.7485 200.564 54.0691 199.498 54.7062C198.432 55.3474 197.591 56.2302 196.979 57.3628C196.367 58.4953 196.059 59.7945 196.059 61.2602C196.059 62.7259 196.363 64.0167 196.979 65.1367C197.591 66.2568 198.432 67.1354 199.498 67.7767C200.564 68.4179 201.788 68.7344 203.175 68.7344Z" fill="#1A9CC0"/>
<path d="M222.242 72.1737C221.6 72.1737 221.109 72.0072 220.763 71.674C220.418 71.3409 220.243 70.8413 220.243 70.175V52.3078C220.243 51.6666 220.418 51.1752 220.763 50.8296C221.109 50.484 221.605 50.3091 222.242 50.3091C222.908 50.3091 223.407 50.4757 223.741 50.8088C224.074 51.1419 224.24 51.6416 224.24 52.3078V70.175C224.24 70.8163 224.074 71.3076 223.741 71.6532C223.407 71.9988 222.908 72.1737 222.242 72.1737ZM222.204 58.5037C222.204 56.9047 222.596 55.4724 223.382 54.2065C224.169 52.9407 225.227 51.933 226.56 51.1877C227.892 50.4424 229.358 50.0676 230.957 50.0676C232.556 50.0676 233.746 50.3258 234.533 50.8463C235.32 51.3668 235.62 51.9872 235.433 52.7034C235.354 53.0781 235.2 53.3613 234.975 53.5611C234.75 53.761 234.488 53.8901 234.196 53.94C233.905 53.9942 233.584 53.9817 233.238 53.8984C231.531 53.5528 229.999 53.5237 228.641 53.8193C227.284 54.1149 226.21 54.6604 225.423 55.4599C224.636 56.2593 224.244 57.2712 224.244 58.4995H222.204V58.5037Z" fill="#1A9CC0"/>
<path d="M46.8834 23.1106V62.8966C46.8834 66.1819 44.2227 68.8384 40.9415 68.8384H17.3948C14.1136 68.8384 11.4529 66.1819 11.4529 62.8966V62.0305H29.4825C34.6666 62.0305 38.8804 57.8124 38.8804 52.6326V17.1687H40.9415C44.2227 17.1687 46.8834 19.8294 46.8834 23.1106Z" fill="#76CBD2"/>
<path d="M35.5493 13.0922V52.6325C35.5493 55.9845 32.8345 58.6993 29.4825 58.6993H6.1814C2.83363 58.6993 0.118774 55.9845 0.118774 52.6325V13.0922C0.118774 9.74447 2.83363 7.02545 6.1814 7.02545H29.4825C32.8345 7.02545 35.5493 9.74864 35.5493 13.0922Z" fill="#1A9CC0"/>
</svg>
