<svg width="36" height="36" viewBox="0 0 36 36" fill="none" xmlns="http://www.w3.org/2000/svg">
<rect width="36" height="36" rx="18" fill="white"/>
<path fill-rule="evenodd" clip-rule="evenodd" d="M20.1482 20.8635V19.4316C20.4703 19.2719 21.3918 18.1751 21.4884 17.3182C21.7418 17.2988 22.1399 17.0661 22.2573 16.1476C22.3203 15.6543 22.0698 15.3772 21.9179 15.2899C21.9179 15.2899 22.296 14.5718 22.296 13.7048C22.296 11.9665 21.6137 10.4831 20.1482 10.4831C20.1482 10.4831 19.6391 9.40918 18.0003 9.40918C14.9633 9.40918 13.7047 11.3573 13.7047 13.7048C13.7047 14.4952 14.0827 15.2899 14.0827 15.2899C13.9309 15.3772 13.6804 15.655 13.7434 16.1476C13.8608 17.0661 14.2588 17.2988 14.5123 17.3182C14.6089 18.1751 15.5303 19.2719 15.8525 19.4316V20.8635C15.1366 23.0113 9.40906 21.5794 9.40906 26.591H26.5915C26.5915 21.5794 20.8641 23.0113 20.1482 20.8635Z" fill="#E37827"/>
</svg>
