<svg width="30" height="30" viewBox="0 0 30 30" fill="none" xmlns="http://www.w3.org/2000/svg">
<path d="M15 0C6.71571 0 0 6.71571 0 15C0 23.2843 6.71571 30 15 30C23.2843 30 30 23.2843 30 15C29.9904 6.7197 23.2803 0.00961693 15 0ZM15 29.0323C7.2502 29.0323 0.967742 22.7498 0.967742 15C0.967742 7.2502 7.2502 0.967742 15 0.967742C22.7498 0.967742 29.0323 7.2502 29.0323 15C29.0237 22.7463 22.7463 29.0237 15 29.0323Z" fill="#2FBA20"/>
<path d="M22.3997 9.57722L12.5805 19.3964L7.60004 14.4159C7.40782 14.2302 7.10153 14.2356 6.91585 14.4278C6.73476 14.6153 6.73476 14.9126 6.91585 15.1001L12.2384 20.4227C12.4274 20.6116 12.7337 20.6116 12.9226 20.4227L23.0839 10.2614C23.2696 10.0692 23.2643 9.76291 23.0721 9.57722C22.8845 9.39613 22.5872 9.39613 22.3997 9.57722Z" fill="#2FBA20"/>
</svg>
