<svg width="24" height="24" viewBox="0 0 24 24" fill="none" xmlns="http://www.w3.org/2000/svg">
<path d="M22.9481 1.05142C22.6458 0.749193 22.1557 0.749193 21.8534 1.05142L11.9995 10.9054L2.14552 1.05142C1.84852 0.74387 1.35836 0.735355 1.05081 1.03236C0.74326 1.32936 0.734745 1.81952 1.03174 2.12707C1.03794 2.13355 1.04432 2.13984 1.05081 2.14613L10.9047 12.0001L1.05081 21.854C0.74326 22.1511 0.734744 22.6412 1.03184 22.9487C1.32894 23.2563 1.819 23.2648 2.12655 22.9677C2.13303 22.9615 2.13932 22.9551 2.14552 22.9487L11.9995 13.0948L21.8534 22.9487C22.1609 23.2458 22.651 23.2373 22.9481 22.9298C23.2379 22.6298 23.2379 22.154 22.9481 21.854L13.0942 12.0001L22.9481 2.14613C23.2503 1.84381 23.2503 1.35374 22.9481 1.05142Z" fill="#BF3312"/>
</svg>
