<svg width="30" height="30" viewBox="0 0 30 30" fill="none" xmlns="http://www.w3.org/2000/svg">
<path d="M15 0C6.71571 0 0 6.71571 0 15C0 23.2843 6.71571 30 15 30C23.2843 30 30 23.2843 30 15C29.9904 6.7197 23.2803 0.00961693 15 0ZM15 29.0323C7.2502 29.0323 0.967742 22.7498 0.967742 15C0.967742 7.2502 7.2502 0.967742 15 0.967742C22.7498 0.967742 29.0323 7.2502 29.0323 15C29.0237 22.7463 22.7463 29.0237 15 29.0323Z" fill="#BF3312"/>
<path d="M21.8428 8.15712C21.6539 7.96823 21.3476 7.96823 21.1586 8.15712L14.9999 14.3158L8.84119 8.15712C8.65557 7.9649 8.34922 7.95958 8.157 8.14521C7.96478 8.33083 7.95946 8.63718 8.14508 8.8294C8.14896 8.83345 8.15295 8.83738 8.157 8.84132L14.3157 15L8.157 21.1587C7.96478 21.3444 7.95946 21.6507 8.14514 21.8429C8.33083 22.0352 8.63712 22.0405 8.82934 21.8548C8.83339 21.8509 8.83732 21.8469 8.84119 21.8429L14.9999 15.6842L21.1586 21.8429C21.3508 22.0286 21.6571 22.0233 21.8428 21.8311C22.024 21.6436 22.024 21.3462 21.8428 21.1587L15.6841 15L21.8428 8.84132C22.0317 8.65236 22.0317 8.34607 21.8428 8.15712Z" fill="#BF3312"/>
</svg>
