<svg width="18" height="20" viewBox="0 0 18 20" fill="none" xmlns="http://www.w3.org/2000/svg">
<path d="M1.77644 6.47827C1.43184 6.47827 1.13946 6.59844 0.899122 6.83878C0.658781 7.07912 0.538574 7.36752 0.538574 7.70413V12.8724C0.538574 13.2174 0.658745 13.5095 0.899122 13.7499C1.13946 13.9902 1.43184 14.1104 1.77644 14.1104C2.12079 14.1104 2.4114 13.9903 2.64801 13.7499C2.88416 13.5095 3.00256 13.2174 3.00256 12.8724V7.70413C3.00256 7.36749 2.88239 7.07912 2.64201 6.83878C2.40163 6.59844 2.11305 6.47827 1.77644 6.47827Z" fill="white"/>
<path d="M11.7285 1.83878L12.5819 0.264526C12.6379 0.160304 12.618 0.0803828 12.522 0.0241852C12.4177 -0.0242736 12.3376 0.000281275 12.2816 0.0961138L11.4163 1.68296C10.6549 1.34631 9.84957 1.17768 9.00035 1.17768C8.15095 1.17768 7.34555 1.34635 6.58443 1.68296L5.71908 0.0961138C5.66284 0.000281275 5.58274 -0.0240566 5.47873 0.0241852C5.38247 0.080636 5.36254 0.160304 5.41878 0.264526L6.27219 1.83878C5.40684 2.28008 4.71764 2.89468 4.20485 3.6839C3.69205 4.47356 3.43555 5.33649 3.43555 6.2742H14.5531C14.5531 5.33671 14.2965 4.47375 13.7838 3.6839C13.2709 2.89468 12.5857 2.28008 11.7285 1.83878ZM6.79468 4.12857C6.70239 4.22107 6.59216 4.26711 6.46404 4.26711C6.33566 4.26711 6.22768 4.22107 6.13958 4.12857C6.05149 4.0365 6.00744 3.9267 6.00744 3.79814C6.00744 3.67002 6.05149 3.56001 6.13958 3.46772C6.22768 3.37565 6.33591 3.32961 6.46404 3.32961C6.59216 3.32961 6.70239 3.37565 6.79468 3.46772C6.88675 3.56023 6.933 3.67002 6.933 3.79814C6.93275 3.92649 6.88653 4.0365 6.79468 4.12857ZM11.8606 4.12857C11.7724 4.22107 11.6641 4.26711 11.5362 4.26711C11.4078 4.26711 11.2976 4.22107 11.2055 4.12857C11.1133 4.0365 11.0672 3.9267 11.0672 3.79814C11.0672 3.67002 11.1133 3.56001 11.2055 3.46772C11.2976 3.37565 11.4078 3.32961 11.5362 3.32961C11.6643 3.32961 11.7723 3.37565 11.8606 3.46772C11.9488 3.56023 11.9928 3.67002 11.9928 3.79814C11.9928 3.92649 11.9488 4.0365 11.8606 4.12857Z" fill="white"/>
<path d="M3.48315 14.7114C3.48315 15.0804 3.61128 15.3927 3.86757 15.6489C4.12408 15.9052 4.43638 16.0334 4.80506 16.0334H5.69454L5.70672 18.762C5.70672 19.1066 5.82689 19.3992 6.06723 19.6396C6.30757 19.8799 6.59619 20.0001 6.93258 20.0001C7.27697 20.0001 7.56953 19.8799 7.8099 19.6396C8.05028 19.3992 8.17045 19.1066 8.17045 18.762V16.0336H9.82904V18.762C9.82904 19.1066 9.94918 19.3992 10.1896 19.6396C10.4299 19.8799 10.7222 20.0001 11.0669 20.0001C11.4113 20.0001 11.7038 19.8799 11.9442 19.6396C12.1846 19.3992 12.3047 19.1066 12.3047 18.762V16.0336H13.2062C13.5667 16.0336 13.875 15.9055 14.1317 15.6492C14.388 15.3929 14.5162 15.0806 14.5162 14.7117V6.70654H3.48315V14.7114Z" fill="white"/>
<path d="M16.2237 6.47827C15.8871 6.47827 15.5987 6.59667 15.3583 6.83282C15.118 7.06939 14.9978 7.36 14.9978 7.70413V12.8724C14.9978 13.2174 15.1179 13.5095 15.3583 13.7499C15.5987 13.9903 15.8873 14.1104 16.2237 14.1104C16.5681 14.1104 16.8606 13.9903 17.101 13.7499C17.3414 13.5095 17.4615 13.2174 17.4615 12.8724V7.70413C17.4615 7.35997 17.3414 7.06939 17.101 6.83282C16.8606 6.59667 16.5681 6.47827 16.2237 6.47827Z" fill="white"/>
</svg>
