<svg width="20" height="20" viewBox="0 0 20 20" fill="none" xmlns="http://www.w3.org/2000/svg">
<g clip-path="url(#clip0)">
<path d="M2.98325 17.6633H14.8657L14.2982 15.8258L15.6557 16.9908L16.8999 18.1058L19.1666 20V2.0625C19.1099 0.9475 18.1499 0 16.9599 0L2.98742 0.0025C1.79825 0.0025 0.833252 0.951667 0.833252 2.06667V15.6C0.833252 16.7758 1.79658 17.6633 2.98325 17.6633ZM11.7732 4.73583L11.7457 4.74583L11.7557 4.73583H11.7732ZM5.41408 5.79333C6.94158 4.68167 8.35741 4.735 8.35741 4.735L8.47158 4.8475C6.60241 5.29333 5.75491 6.12833 5.75491 6.12833C5.75491 6.12833 5.98158 6.0175 6.37741 5.84833C8.89491 4.85833 11.6441 4.93 14.1891 6.18333C14.1891 6.18333 13.3399 5.4025 11.5857 4.9025L11.7407 4.75C11.9832 4.75083 13.2666 4.79583 14.6399 5.8C14.6399 5.8 16.1766 8.425 16.1766 11.65C16.1257 11.5883 15.2232 13.0383 12.9007 13.0883C12.9007 13.0883 12.5074 12.6433 12.2274 12.255C13.5857 11.865 14.0941 11.085 14.0941 11.085C13.6482 11.3658 13.2416 11.5325 12.9116 11.6992C12.4041 11.9225 11.8957 12.0325 11.3882 12.145C8.98491 12.535 7.63575 11.8825 6.36075 11.365L5.92491 11.1433C5.92491 11.1433 6.43241 11.9233 7.73658 12.3133C7.39408 12.7042 7.05491 13.1483 7.05491 13.1483C4.73325 13.0933 3.88658 11.6433 3.88658 11.6433C3.88658 8.41333 5.41408 5.79333 5.41408 5.79333Z" fill="white"/>
<path d="M11.9234 10.6425C12.5159 10.6425 12.9984 10.1425 12.9984 9.52583C12.9984 8.91333 12.5184 8.41333 11.9234 8.41333V8.41583C11.3334 8.41583 10.8501 8.91416 10.8484 9.53083C10.8484 10.1425 11.3309 10.6425 11.9234 10.6425Z" fill="white"/>
<path d="M8.075 10.6425C8.66751 10.6425 9.15001 10.1425 9.15001 9.52583C9.15001 8.91333 8.67084 8.41333 8.07834 8.41333L8.075 8.41583C7.4825 8.41583 7 8.91416 7 9.53083C7 10.1425 7.4825 10.6425 8.075 10.6425Z" fill="white"/>
</g>
<defs>
<clipPath id="clip0">
<rect width="20" height="20" fill="white"/>
</clipPath>
</defs>
</svg>
